<svg version="1.1" viewBox="0.0 0.0 960.0 540.0" fill="none" stroke="none" stroke-linecap="square" stroke-miterlimit="10" xmlns:xlink="http://www.w3.org/1999/xlink" xmlns="http://www.w3.org/2000/svg"><clipPath id="g3801de7d0a2_1_936.0"><path d="m0 0l960.0 0l0 540.0l-960.0 0l0 -540.0z" clip-rule="nonzero"/></clipPath><g clip-path="url(#g3801de7d0a2_1_936.0)"><path fill="#fff6f6" d="m0 0l960.0 0l0 540.0l-960.0 0z" fill-rule="evenodd"/><path fill="#3d0309" d="m808.51184 73.66929l0 358.90433l-33.75714 33.75711l-612.6366 0l0 0l0 -358.90433l33.75711 -33.757103l612.6366 0z" fill-rule="evenodd"/><path stroke="#e41939" stroke-width="1.3202099737532809" stroke-linejoin="round" stroke-linecap="butt" d="m808.51184 73.66929l0 358.90433l-33.75714 33.75711l-612.6366 0l0 0l0 -358.90433l33.75711 -33.757103l612.6366 0z" fill-rule="evenodd"/><path fill="#3d0309" d="m794.16614 145.7767l0 246.11206l-23.148315 23.148315l-588.16974 0l0 0l0 -246.11206l23.1483 -23.148315l588.16974 0z" fill-rule="evenodd"/><path stroke="#e41939" stroke-width="1.3202099737532809" stroke-linejoin="round" stroke-linecap="butt" stroke-dasharray="5.2808398950131235,3.9606299212598426" d="m794.16614 145.7767l0 246.11206l-23.148315 23.148315l-588.16974 0l0 0l0 -246.11206l23.1483 -23.148315l588.16974 0z" fill-rule="evenodd"/><path fill="#000000" fill-opacity="0.0" d="m176.49759 112.739174l421.81937 0l0 63.969078l-421.81937 0z" fill-rule="evenodd"/><path fill="#eabac0" d="m181.82571 129.94344l-5.515625 -12.406242l2.40625 0l4.484375 10.40625l-0.75 0l4.46875 -10.40625l2.3125 0l-5.515625 12.406242l-1.890625 0zm10.129303 0.171875q-0.921875 0 -1.65625 -0.359375q-0.734375 -0.359375 -1.15625 -0.96875q-0.40625 -0.625 -0.40625 -1.3906174q0 -0.953125 0.484375 -1.5q0.5 -0.5625 1.609375 -0.8125q1.109375 -0.25 2.984375 -0.25l0.875 0l0 1.28125l-0.859375 0q-0.828125 0 -1.390625 0.0625q-0.5625 0.046875 -0.90625 0.1875q-0.34375 0.125 -0.5 0.359375q-0.140625 0.234375 -0.140625 0.5625q0 0.578125 0.40625 0.9531174q0.40625 0.359375 1.125 0.359375q0.578125 0 1.015625 -0.265625q0.453125 -0.265625 0.71875 -0.7343674q0.265625 -0.484375 0.265625 -1.109375l0 -2.015625q0 -0.875 -0.390625 -1.265625q-0.375 -0.390625 -1.296875 -0.390625q-0.71875 0 -1.484375 0.21875q-0.75 0.21875 -1.53125 0.671875l-0.625 -1.484375q0.453125 -0.328125 1.078125 -0.5625q0.625 -0.234375 1.3125 -0.359375q0.703125 -0.140625 1.328125 -0.140625q1.265625 0 2.078125 0.390625q0.8125 0.390625 1.21875 1.171875q0.40625 0.78125 0.40625 2.015625l0 5.2031174l-2.0625 0l0 -1.828125l0.140625 0q-0.125 0.609375 -0.484375 1.0625q-0.359375 0.453125 -0.90625 0.703125q-0.53125 0.234375 -1.25 0.234375zm9.90509 0q-1.0625 0 -1.765625 -0.390625q-0.703125 -0.390625 -1.046875 -1.1875q-0.34375 -0.7968674 -0.34375 -1.9687424l0 -5.234375l2.203125 0l0 5.265625q0 0.59375 0.15625 1.0q0.171875 0.40624237 0.515625 0.6093674q0.34375 0.1875 0.875 0.1875q0.59375 0 1.03125 -0.265625q0.453125 -0.28124237 0.703125 -0.7812424q0.265625 -0.5 0.265625 -1.171875l0 -4.84375l2.203125 0l0 8.609367l-2.15625 0l0 -1.796875l0.25 0q-0.359375 0.953125 -1.109375 1.46875q-0.75 0.5 -1.78125 0.5zm10.077469 0q-1.53125 0 -2.265625 -0.828125q-0.734375 -0.84375 -0.734375 -2.4531174l0 -9.296875l2.203125 0l0 9.1875q0 0.515625 0.140625 0.875q0.15625 0.359375 0.453125 0.5312424q0.296875 0.171875 0.75 0.171875q0.1875 0 0.375 -0.015625q0.203125 -0.015625 0.375 -0.0625l-0.03125 1.734375q-0.328125 0.078125 -0.640625 0.109375q-0.296875 0.046875 -0.625 0.046875zm6.3211975 0q-1.71875 0 -2.5625 -0.859375q-0.84375 -0.859375 -0.84375 -2.5156174l0 -3.75l-1.65625 0l0 -1.65625l1.65625 0l0 -2.5625l2.203125 0l0 2.5625l2.59375 0l0 1.65625l-2.59375 0l0 3.625q0 0.84375 0.359375 1.265625q0.375 0.42186737 1.203125 0.42186737q0.25 0 0.5 -0.0625q0.265625 -0.0625 0.546875 -0.125l0.34375 1.609375q-0.3125 0.1875 -0.796875 0.28125q-0.484375 0.109375 -0.953125 0.109375zm6.443878 -0.171875l5.609375 -12.406242l1.859375 0l5.609375 12.406242l-2.296875 0l-1.484375 -3.4843674l0.9375 0.609375l-7.421875 0l0.953125 -0.609375l-1.46875 3.4843674l-2.296875 0zm6.515625 -9.953117l-2.46875 5.859375l-0.453125 -0.5625l5.875 0l-0.4375 0.5625l-2.484375 -5.859375l-0.03125 0z" fill-rule="nonzero"/><path fill="#eabac0" d="m243.92348 133.11531l0 -15.578117l1.421875 0l0 15.578117l-1.421875 0zm9.0902405 -3.171875l0 -12.406242l4.9062347 0q1.984375 0 3.0625 0.9375q1.078125 0.9375 1.078125 2.65625q0 1.09375 -0.484375 1.890625q-0.484375 0.796875 -1.421875 1.21875q-0.9375 0.40625 -2.234375 0.40625l0.171875 -0.234375l0.359375 0q0.6875 0 1.1875 0.359375q0.515625 0.34375 0.9375 1.125l2.1875 4.0468674l-1.59375 0l-2.140625 -3.9687424q-0.265625 -0.5 -0.59375 -0.78125q-0.3125 -0.28125 -0.734375 -0.390625q-0.40625 -0.109375 -1.0 -0.109375l-2.2499847 0l0 5.2499924l-1.4375 0zm1.4375 -6.3906174l3.2656097 0q1.4375 0 2.171875 -0.59375q0.75 -0.609375 0.75 -1.828125q0 -1.1875 -0.75 -1.78125q-0.734375 -0.609375 -2.171875 -0.609375l-3.2656097 0l0 4.8125zm12.797592 6.5468674q-0.875 0 -1.578125 -0.34375q-0.6875 -0.34375 -1.09375 -0.9375q-0.40625 -0.59375 -0.40625 -1.3437424q0 -0.9375 0.484375 -1.484375q0.484375 -0.546875 1.59375 -0.78125q1.125 -0.234375 3.0625 -0.234375l0.78125 0l0 0.9375l-0.765625 0q-1.078125 0 -1.796875 0.078125q-0.71875 0.0625 -1.140625 0.25q-0.421875 0.171875 -0.609375 0.453125q-0.171875 0.28125 -0.171875 0.703125q0 0.7187424 0.5 1.1718674q0.5 0.453125 1.359375 0.453125q0.71875 0 1.25 -0.328125q0.53125 -0.328125 0.84375 -0.9062424q0.3125 -0.59375 0.3125 -1.34375l0 -2.0q0 -1.09375 -0.453125 -1.578125q-0.4375 -0.484375 -1.4375 -0.484375q-0.765625 0 -1.5 0.21875q-0.71875 0.21875 -1.46875 0.703125l-0.5 -1.03125q0.46875 -0.3125 1.046875 -0.546875q0.578125 -0.25 1.203125 -0.359375q0.640625 -0.125 1.21875 -0.125q1.109375 0 1.828125 0.359375q0.71875 0.359375 1.0625 1.09375q0.359375 0.71875 0.359375 1.859375l0 5.3906174l-1.328125 0l0 -1.9843674l0.15625 0q-0.140625 0.6718674 -0.546875 1.1406174q-0.390625 0.46875 -0.96875 0.734375q-0.578125 0.265625 -1.296875 0.265625zm10.059143 0q-1.515625 0 -2.28125 -0.796875q-0.75 -0.8125 -0.75 -2.3124924l0 -4.484375l-1.65625 0l0 -1.109375l1.65625 0l0 -2.625l1.4375 0l0 2.625l2.703125 0l0 1.109375l-2.703125 0l0 4.34375q0 1.0 0.421875 1.5156174q0.421875 0.515625 1.375 0.515625q0.28125 0 0.5625 -0.0625q0.28125 -0.078125 0.5 -0.140625l0.25 1.09375q-0.234375 0.125 -0.671875 0.21875q-0.4375 0.109375 -0.84375 0.109375zm2.548462 -10.828117l0 -1.609375l1.765625 0l0 1.609375l-1.765625 0zm0.1875 10.671867l0 -8.546867l1.421875 0l0 8.546867l-1.421875 0zm4.081787 0l0 -8.546867l1.390625 0l0 1.890625l-0.203125 0q0.375 -1.015625 1.203125 -1.53125q0.84375 -0.515625 1.9375 -0.515625q1.015625 0 1.6875 0.359375q0.6875 0.359375 1.015625 1.125q0.328125 0.75 0.328125 1.890625l0 5.3281174l-1.421875 0l0 -5.2499924q0 -0.78125 -0.203125 -1.296875q-0.203125 -0.515625 -0.640625 -0.75q-0.421875 -0.25 -1.109375 -0.25q-0.765625 0 -1.359375 0.34375q-0.578125 0.328125 -0.890625 0.921875q-0.3125 0.59375 -0.3125 1.40625l0 4.8749924l-1.421875 0zm13.774567 3.328125q-1.109375 0 -2.09375 -0.296875q-0.96875 -0.28125 -1.734375 -0.875l0.484375 -1.03125q0.53125 0.375 1.046875 0.609375q0.515625 0.234375 1.0625 0.34375q0.5625 0.109375 1.15625 0.109375q1.25 0 1.890625 -0.671875q0.640625 -0.671875 0.640625 -1.9375l0 -1.9843674l0.1875 0q-0.265625 1.0156174 -1.125 1.6249924q-0.859375 0.59375 -2.0 0.59375q-1.171875 0 -2.046875 -0.53125q-0.859375 -0.546875 -1.328125 -1.5156174q-0.453125 -0.96875 -0.453125 -2.234375q0 -1.265625 0.453125 -2.21875q0.46875 -0.96875 1.328125 -1.484375q0.875 -0.53125 2.046875 -0.53125q1.171875 0 2.015625 0.59375q0.84375 0.578125 1.078125 1.578125l-0.15625 0l0 -2.015625l1.390625 0l0 7.9374924q0 1.296875 -0.4375 2.171875q-0.421875 0.890625 -1.28125 1.328125q-0.859375 0.4375 -2.125 0.4375zm-0.21875 -4.6875q1.234375 0 1.953125 -0.8437424q0.71875 -0.84375 0.71875 -2.265625q0 -1.421875 -0.71875 -2.25q-0.71875 -0.84375 -1.953125 -0.84375q-1.21875 0 -1.9375 0.84375q-0.71875 0.828125 -0.71875 2.25q0 1.421875 0.71875 2.265625q0.71875 0.8437424 1.9375 0.8437424zm6.5131226 -5.3906174l0 -1.796875l1.796875 0l0 1.796875l-1.796875 0zm0 6.7499924l0 -1.796875l1.796875 0l0 1.796875l-1.796875 0zm8.954895 0l0 -12.406242l4.953125 0q1.90625 0 2.953125 0.84375q1.0625 0.84375 1.0625 2.390625q0 1.171875 -0.671875 1.953125q-0.671875 0.765625 -1.84375 1.015625l0 -0.25q0.890625 0.109375 1.515625 0.5q0.640625 0.390625 0.96875 1.03125q0.328125 0.640625 0.328125 1.515625q0 1.09375 -0.484375 1.8593674q-0.484375 0.765625 -1.40625 1.15625q-0.90625 0.390625 -2.203125 0.390625l-5.171875 0zm1.40625 -1.15625l3.625 0q0.5625 0 1.0 -0.09375q0.453125 -0.09375 0.78125 -0.265625q0.34375 -0.1875 0.578125 -0.45311737q0.234375 -0.265625 0.34375 -0.625q0.109375 -0.375 0.109375 -0.84375q0 -0.46875 -0.109375 -0.828125q-0.109375 -0.359375 -0.34375 -0.625q-0.234375 -0.28125 -0.578125 -0.453125q-0.328125 -0.1875 -0.78125 -0.265625q-0.4375 -0.09375 -1.0 -0.09375l-3.625 0l0 4.5468674zm0 -5.7031174l3.34375 0q1.375 0 2.078125 -0.5625q0.71875 -0.5625 0.71875 -1.625q0 -1.09375 -0.71875 -1.640625q-0.703125 -0.5625 -2.078125 -0.5625l-3.34375 0l0 4.390625zm13.674683 6.1562424l0 -3.7968674l-3.734375 0l0 -1.09375l3.734375 0l0 -3.703125l1.125 0l0 3.703125l3.734375 0l0 1.09375l-3.734375 0l0 3.7968674l-1.125 0zm11.984192 3.875l0 -15.578117l1.421875 0l0 15.578117l-1.421875 0zm9.0902405 -3.171875l0 -12.406242l4.90625 0q1.34375 0 2.265625 0.4375q0.921875 0.421875 1.390625 1.265625q0.484375 0.828125 0.484375 2.03125q0 1.15625 -0.484375 2.0q-0.46875 0.84375 -1.390625 1.296875q-0.921875 0.4375 -2.265625 0.4375l-3.46875 0l0 4.9374924l-1.4375 0zm1.4375 -6.1562424l3.296875 0q1.421875 0 2.15625 -0.640625q0.734375 -0.640625 0.734375 -1.875q0 -1.25 -0.734375 -1.890625q-0.734375 -0.640625 -2.15625 -0.640625l-3.296875 0l0 5.046875zm13.715057 6.3124924q-0.96875 0 -1.828125 -0.171875q-0.84375 -0.171875 -1.5625 -0.5q-0.71875 -0.328125 -1.296875 -0.796875l0.515625 -1.1718674q0.59375 0.4375 1.21875 0.7499924q0.625 0.3125 1.359375 0.46875q0.734375 0.140625 1.59375 0.140625q1.578125 0 2.34375 -0.59375q0.765625 -0.5937424 0.765625 -1.5468674q0 -0.515625 -0.234375 -0.875q-0.234375 -0.375 -0.78125 -0.640625q-0.53125 -0.265625 -1.390625 -0.4375l-1.828125 -0.375q-1.65625 -0.359375 -2.484375 -1.15625q-0.8125 -0.796875 -0.8125 -2.140625q0 -1.109375 0.5625 -1.921875q0.578125 -0.828125 1.609375 -1.28125q1.03125 -0.46875 2.34375 -0.46875q0.84375 0 1.59375 0.1875q0.765625 0.171875 1.40625 0.515625q0.65625 0.328125 1.140625 0.828125l-0.515625 1.125q-0.78125 -0.71875 -1.671875 -1.046875q-0.875 -0.328125 -1.96875 -0.328125q-0.921875 0 -1.609375 0.28125q-0.671875 0.28125 -1.046875 0.828125q-0.375 0.53125 -0.375 1.234375q0 0.84375 0.515625 1.34375q0.515625 0.484375 1.6875 0.71875l1.84375 0.390625q1.765625 0.359375 2.609375 1.109375q0.859375 0.75 0.859375 2.03125q0 1.015625 -0.546875 1.8281174q-0.546875 0.796875 -1.578125 1.234375q-1.03125 0.4375 -2.4375 0.4375zm6.804596 -0.15625l0 -12.406242l1.4375 0l0 11.140617l6.328125 0l0 1.265625l-7.765625 0zm9.254761 -6.7499924l0 -1.796875l1.796875 0l0 1.796875l-1.796875 0zm0 6.7499924l0 -1.796875l1.796875 0l0 1.796875l-1.796875 0zm9.611145 0l0 -1.234375l2.828125 0l0 -9.921867l0.75 0l-2.984375 1.90625l-0.625 -1.078125l3.265625 -2.078125l1.03125 0l0 11.171867l2.65625 0l0 1.234375l-6.921875 0zm9.47818 0l0 -1.796875l1.796875 0l0 1.796875l-1.796875 0zm8.042664 0.15625q-0.828125 0 -1.59375 -0.171875q-0.765625 -0.171875 -1.4375 -0.5q-0.671875 -0.328125 -1.171875 -0.796875l0.515625 -1.1562424q0.875 0.7031174 1.75 1.0312424q0.875 0.3125 1.90625 0.3125q0.890625 0 1.5 -0.265625q0.625 -0.265625 0.9375 -0.7812424q0.3125 -0.515625 0.3125 -1.28125q0 -1.09375 -0.71875 -1.65625q-0.71875 -0.5625 -2.09375 -0.5625l-1.828125 0l0 -1.25l1.703125 0q0.8125 0 1.375 -0.28125q0.578125 -0.28125 0.890625 -0.796875q0.328125 -0.515625 0.328125 -1.25q0 -0.984375 -0.640625 -1.5q-0.625 -0.53125 -1.828125 -0.53125q-0.984375 0 -1.8125 0.34375q-0.828125 0.34375 -1.5625 1.0625l-0.53125 -1.125q0.703125 -0.734375 1.765625 -1.140625q1.0625 -0.421875 2.234375 -0.421875q1.1875 0 2.046875 0.375q0.859375 0.375 1.3125 1.09375q0.453125 0.71875 0.453125 1.71875q0 1.140625 -0.640625 1.96875q-0.625 0.8125 -1.71875 1.109375l0 -0.1875q0.859375 0.140625 1.46875 0.5625q0.609375 0.421875 0.921875 1.078125q0.328125 0.65625 0.328125 1.5q0 1.078125 -0.515625 1.8593674q-0.5 0.78125 -1.4375 1.21875q-0.921875 0.421875 -2.21875 0.421875zm10.44693 0.28125l-1.0 -0.578125l7.296875 -12.703117l0.984375 0.578125l-7.28125 12.703117zm-1.0625 -5.4062424q-0.921875 0 -1.609375 -0.4375q-0.671875 -0.453125 -1.03125 -1.296875q-0.34375 -0.859375 -0.34375 -2.0625q0 -1.796875 0.78125 -2.78125q0.796875 -1.0 2.203125 -1.0q0.9375 0 1.609375 0.453125q0.671875 0.453125 1.03125 1.296875q0.359375 0.84375 0.359375 2.03125q0 1.203125 -0.359375 2.046875q-0.359375 0.84375 -1.03125 1.296875q-0.671875 0.453125 -1.609375 0.453125zm0 -1.03125q0.8125 0 1.28125 -0.6875q0.484375 -0.703125 0.484375 -2.078125q0 -1.375 -0.484375 -2.046875q-0.46875 -0.6875 -1.28125 -0.6875q-0.8125 0 -1.28125 0.6875q-0.46875 0.671875 -0.46875 2.046875q0 1.375 0.46875 2.078125q0.46875 0.6875 1.28125 0.6875zm8.421875 6.1562424q-0.921875 0 -1.609375 -0.4375q-0.671875 -0.453125 -1.03125 -1.3125q-0.359375 -0.8593674 -0.359375 -2.0468674q0 -1.796875 0.796875 -2.78125q0.8125 -1.0 2.203125 -1.0q0.921875 0 1.59375 0.453125q0.671875 0.4375 1.03125 1.28125q0.359375 0.84375 0.359375 2.046875q0 1.1875 -0.359375 2.0468674q-0.34375 0.859375 -1.015625 1.3125q-0.65625 0.4375 -1.609375 0.4375zm0 -1.03125q0.828125 0 1.28125 -0.6875q0.46875 -0.7031174 0.46875 -2.0781174q0 -1.375 -0.46875 -2.0625q-0.453125 -0.6875 -1.28125 -0.6875q-0.8125 0 -1.28125 0.6875q-0.46875 0.6875 -0.46875 2.0625q0 1.390625 0.46875 2.0781174q0.46875 0.6875 1.28125 0.6875z" fill-rule="nonzero"/><path fill="#3d0309" d="m646.5997 159.7773l0 48.325806l-4.545349 4.545334l-438.0866 0l0 0l0 -48.325806l4.545334 -4.545334l438.0866 0z" fill-rule="evenodd"/><path stroke="#e41939" stroke-width="1.3202099737532809" stroke-linejoin="round" stroke-linecap="butt" d="m646.5997 159.7773l0 48.325806l-4.545349 4.545334l-438.0866 0l0 0l0 -48.325806l4.545334 -4.545334l438.0866 0z" fill-rule="evenodd"/><path fill="#000000" fill-opacity="0.0" d="m222.12169 176.72443l398.97748 0l0 21.323029l-398.97748 0z" fill-rule="evenodd"/><path fill="#eabac0" d="m289.60443 193.72035l0 -12.40625l1.875 0l4.6875 8.640625l-0.5625 0l4.65625 -8.640625l1.859375 0l0 12.40625l-2.046875 0l0 -9.0625l0.390625 0l-3.953125 7.1875l-1.3125 0l-3.96875 -7.203125l0.421875 0l0 9.078125l-2.046875 0zm17.84961 0.171875q-0.921875 0 -1.65625 -0.359375q-0.734375 -0.359375 -1.15625 -0.96875q-0.40625 -0.625 -0.40625 -1.390625q0 -0.953125 0.484375 -1.5q0.5 -0.5625 1.609375 -0.8125q1.109375 -0.25 2.984375 -0.25l0.875 0l0 1.28125l-0.859375 0q-0.828125 0 -1.390625 0.0625q-0.5625 0.046875 -0.90625 0.1875q-0.34375 0.125 -0.5 0.359375q-0.140625 0.234375 -0.140625 0.5625q0 0.578125 0.40625 0.953125q0.40625 0.359375 1.125 0.359375q0.578125 0 1.015625 -0.265625q0.453125 -0.265625 0.71875 -0.734375q0.265625 -0.484375 0.265625 -1.109375l0 -2.015625q0 -0.875 -0.390625 -1.265625q-0.375 -0.390625 -1.296875 -0.390625q-0.71875 0 -1.484375 0.21875q-0.75 0.21875 -1.53125 0.671875l-0.625 -1.484375q0.453125 -0.328125 1.078125 -0.5625q0.625 -0.234375 1.3125 -0.359375q0.703125 -0.140625 1.328125 -0.140625q1.265625 0 2.078125 0.390625q0.8125 0.390625 1.21875 1.171875q0.40625 0.78125 0.40625 2.015625l0 5.203125l-2.0625 0l0 -1.828125l0.140625 0q-0.125 0.609375 -0.484375 1.0625q-0.359375 0.453125 -0.90625 0.703125q-0.53125 0.234375 -1.25 0.234375zm6.7957153 -0.171875l0 -8.609375l2.15625 0l0 2.078125l-0.1875 0q0.25 -1.046875 0.96875 -1.59375q0.71875 -0.5625 1.921875 -0.65625l0.671875 -0.046875l0.140625 1.859375l-1.265625 0.125q-1.078125 0.109375 -1.625 0.671875q-0.546875 0.546875 -0.546875 1.546875l0 4.625l-2.234375 0zm6.8967896 0l0 -12.40625l2.203125 0l0 7.46875l0.03125 0l3.46875 -3.671875l2.65625 0l-4.328125 4.578125l0 -0.90625l4.578125 4.9375l-2.6875 0l-3.6875 -3.828125l-0.03125 0l0 3.828125l-2.203125 0zm13.504364 0.171875q-1.46875 0 -2.53125 -0.546875q-1.046875 -0.546875 -1.625 -1.546875q-0.5625 -1.0 -0.5625 -2.375q0 -1.328125 0.546875 -2.328125q0.5625 -1.015625 1.53125 -1.578125q0.984375 -0.578125 2.234375 -0.578125q1.21875 0 2.09375 0.53125q0.890625 0.53125 1.375 1.5q0.484375 0.96875 0.484375 2.296875l0 0.65625l-6.484375 0l0 -1.265625l4.9375 0l-0.28125 0.265625q0 -1.203125 -0.53125 -1.84375q-0.53125 -0.640625 -1.515625 -0.640625q-0.734375 0 -1.25 0.34375q-0.515625 0.34375 -0.796875 0.96875q-0.265625 0.625 -0.265625 1.484375l0 0.125q0 0.96875 0.296875 1.609375q0.296875 0.625 0.890625 0.9375q0.609375 0.3125 1.484375 0.3125q0.71875 0 1.4375 -0.21875q0.71875 -0.21875 1.328125 -0.6875l0.609375 1.46875q-0.609375 0.515625 -1.546875 0.8125q-0.9375 0.296875 -1.859375 0.296875zm9.188171 0q-1.71875 0 -2.5625 -0.859375q-0.84375 -0.859375 -0.84375 -2.515625l0 -3.75l-1.65625 0l0 -1.65625l1.65625 0l0 -2.5625l2.203125 0l0 2.5625l2.59375 0l0 1.65625l-2.59375 0l0 3.625q0 0.84375 0.359375 1.265625q0.375 0.421875 1.203125 0.421875q0.25 0 0.5 -0.0625q0.265625 -0.0625 0.546875 -0.125l0.34375 1.609375q-0.3125 0.1875 -0.796875 0.28125q-0.484375 0.109375 -0.953125 0.109375zm6.443878 -0.171875l5.609375 -12.40625l1.859375 0l5.609375 12.40625l-2.296875 0l-1.484375 -3.484375l0.9375 0.609375l-7.421875 0l0.953125 -0.609375l-1.46875 3.484375l-2.296875 0zm6.515625 -9.953125l-2.46875 5.859375l-0.453125 -0.5625l5.875 0l-0.4375 0.5625l-2.484375 -5.859375l-0.03125 0z" fill-rule="nonzero"/><path fill="#eabac0" d="m369.50378 196.89223l0 -15.578125l1.421875 0l0 15.578125l-1.421875 0zm9.0902405 -3.171875l0 -12.40625l4.90625 0q1.984375 0 3.0625 0.9375q1.078125 0.9375 1.078125 2.65625q0 1.09375 -0.484375 1.890625q-0.484375 0.796875 -1.421875 1.21875q-0.9375 0.40625 -2.234375 0.40625l0.171875 -0.234375l0.359375 0q0.6875 0 1.1875 0.359375q0.515625 0.34375 0.9375 1.125l2.1875 4.046875l-1.59375 0l-2.140625 -3.96875q-0.265625 -0.5 -0.59375 -0.78125q-0.3125 -0.28125 -0.734375 -0.390625q-0.40625 -0.109375 -1.0 -0.109375l-2.25 0l0 5.25l-1.4375 0zm1.4375 -6.390625l3.265625 0q1.4375 0 2.171875 -0.59375q0.75 -0.609375 0.75 -1.828125q0 -1.1875 -0.75 -1.78125q-0.734375 -0.609375 -2.171875 -0.609375l-3.265625 0l0 4.8125zm12.797607 6.546875q-0.875 0 -1.578125 -0.34375q-0.6875 -0.34375 -1.09375 -0.9375q-0.40625 -0.59375 -0.40625 -1.34375q0 -0.9375 0.484375 -1.484375q0.484375 -0.546875 1.59375 -0.78125q1.125 -0.234375 3.0625 -0.234375l0.78125 0l0 0.9375l-0.765625 0q-1.078125 0 -1.796875 0.078125q-0.71875 0.0625 -1.140625 0.25q-0.421875 0.171875 -0.609375 0.453125q-0.171875 0.28125 -0.171875 0.703125q0 0.71875 0.5 1.171875q0.5 0.453125 1.359375 0.453125q0.71875 0 1.25 -0.328125q0.53125 -0.328125 0.84375 -0.90625q0.3125 -0.59375 0.3125 -1.34375l0 -2.0q0 -1.09375 -0.453125 -1.578125q-0.4375 -0.484375 -1.4375 -0.484375q-0.765625 0 -1.5 0.21875q-0.71875 0.21875 -1.46875 0.703125l-0.5 -1.03125q0.46875 -0.3125 1.046875 -0.546875q0.578125 -0.25 1.203125 -0.359375q0.640625 -0.125 1.21875 -0.125q1.109375 0 1.828125 0.359375q0.71875 0.359375 1.0625 1.09375q0.359375 0.71875 0.359375 1.859375l0 5.390625l-1.328125 0l0 -1.984375l0.15625 0q-0.140625 0.671875 -0.546875 1.140625q-0.390625 0.46875 -0.96875 0.734375q-0.578125 0.265625 -1.296875 0.265625zm10.059143 0q-1.515625 0 -2.28125 -0.796875q-0.75 -0.8125 -0.75 -2.3125l0 -4.484375l-1.65625 0l0 -1.109375l1.65625 0l0 -2.625l1.4375 0l0 2.625l2.703125 0l0 1.109375l-2.703125 0l0 4.34375q0 1.0 0.421875 1.515625q0.421875 0.515625 1.375 0.515625q0.28125 0 0.5625 -0.0625q0.28125 -0.078125 0.5 -0.140625l0.25 1.09375q-0.234375 0.125 -0.671875 0.21875q-0.4375 0.109375 -0.84375 0.109375zm2.548462 -10.828125l0 -1.609375l1.765625 0l0 1.609375l-1.765625 0zm0.1875 10.671875l0 -8.546875l1.421875 0l0 8.546875l-1.421875 0zm4.081787 0l0 -8.546875l1.390625 0l0 1.890625l-0.203125 0q0.375 -1.015625 1.203125 -1.53125q0.84375 -0.515625 1.9375 -0.515625q1.015625 0 1.6875 0.359375q0.6875 0.359375 1.015625 1.125q0.328125 0.75 0.328125 1.890625l0 5.328125l-1.421875 0l0 -5.25q0 -0.78125 -0.203125 -1.296875q-0.203125 -0.515625 -0.640625 -0.75q-0.421875 -0.25 -1.109375 -0.25q-0.765625 0 -1.359375 0.34375q-0.578125 0.328125 -0.890625 0.921875q-0.3125 0.59375 -0.3125 1.40625l0 4.875l-1.421875 0zm13.774567 3.328125q-1.109375 0 -2.09375 -0.296875q-0.96875 -0.28125 -1.734375 -0.875l0.484375 -1.03125q0.53125 0.375 1.046875 0.609375q0.515625 0.234375 1.0625 0.34375q0.5625 0.109375 1.15625 0.109375q1.25 0 1.890625 -0.671875q0.640625 -0.671875 0.640625 -1.9375l0 -1.984375l0.1875 0q-0.265625 1.015625 -1.125 1.625q-0.859375 0.59375 -2.0 0.59375q-1.171875 0 -2.046875 -0.53125q-0.859375 -0.546875 -1.328125 -1.515625q-0.453125 -0.96875 -0.453125 -2.234375q0 -1.265625 0.453125 -2.21875q0.46875 -0.96875 1.328125 -1.484375q0.875 -0.53125 2.046875 -0.53125q1.171875 0 2.015625 0.59375q0.84375 0.578125 1.078125 1.578125l-0.15625 0l0 -2.015625l1.390625 0l0 7.9375q0 1.296875 -0.4375 2.171875q-0.421875 0.890625 -1.28125 1.328125q-0.859375 0.4375 -2.125 0.4375zm-0.21875 -4.6875q1.234375 0 1.953125 -0.84375q0.71875 -0.84375 0.71875 -2.265625q0 -1.421875 -0.71875 -2.25q-0.71875 -0.84375 -1.953125 -0.84375q-1.21875 0 -1.9375 0.84375q-0.71875 0.828125 -0.71875 2.25q0 1.421875 0.71875 2.265625q0.71875 0.84375 1.9375 0.84375zm6.5131226 -5.390625l0 -1.796875l1.796875 0l0 1.796875l-1.796875 0zm0 6.75l0 -1.796875l1.796875 0l0 1.796875l-1.796875 0zm8.954895 0l0 -12.40625l4.953125 0q1.90625 0 2.953125 0.84375q1.0625 0.84375 1.0625 2.390625q0 1.171875 -0.671875 1.953125q-0.671875 0.765625 -1.84375 1.015625l0 -0.25q0.890625 0.109375 1.515625 0.5q0.640625 0.390625 0.96875 1.03125q0.328125 0.640625 0.328125 1.515625q0 1.09375 -0.484375 1.859375q-0.484375 0.765625 -1.40625 1.15625q-0.90625 0.390625 -2.203125 0.390625l-5.171875 0zm1.40625 -1.15625l3.625 0q0.5625 0 1.0 -0.09375q0.453125 -0.09375 0.78125 -0.265625q0.34375 -0.1875 0.578125 -0.453125q0.234375 -0.265625 0.34375 -0.625q0.109375 -0.375 0.109375 -0.84375q0 -0.46875 -0.109375 -0.828125q-0.109375 -0.359375 -0.34375 -0.625q-0.234375 -0.28125 -0.578125 -0.453125q-0.328125 -0.1875 -0.78125 -0.265625q-0.4375 -0.09375 -1.0 -0.09375l-3.625 0l0 4.546875zm0 -5.703125l3.34375 0q1.375 0 2.078125 -0.5625q0.71875 -0.5625 0.71875 -1.625q0 -1.09375 -0.71875 -1.640625q-0.703125 -0.5625 -2.078125 -0.5625l-3.34375 0l0 4.390625zm13.674683 6.15625l0 -3.796875l-3.734375 0l0 -1.09375l3.734375 0l0 -3.703125l1.125 0l0 3.703125l3.734375 0l0 1.09375l-3.734375 0l0 3.796875l-1.125 0zm11.984192 3.875l0 -15.578125l1.421875 0l0 15.578125l-1.421875 0zm9.0902405 -3.171875l0 -12.40625l4.9062805 0q1.34375 0 2.265625 0.4375q0.921875 0.421875 1.390625 1.265625q0.484375 0.828125 0.484375 2.03125q0 1.15625 -0.484375 2.0q-0.46875 0.84375 -1.390625 1.296875q-0.921875 0.4375 -2.265625 0.4375l-3.4687805 0l0 4.9375l-1.4375 0zm1.4375 -6.15625l3.2969055 0q1.421875 0 2.15625 -0.640625q0.734375 -0.640625 0.734375 -1.875q0 -1.25 -0.734375 -1.890625q-0.734375 -0.640625 -2.15625 -0.640625l-3.2969055 0l0 5.046875zm13.715057 6.3125q-0.96875 0 -1.828125 -0.171875q-0.84375 -0.171875 -1.5625 -0.5q-0.71875 -0.328125 -1.296875 -0.796875l0.515625 -1.171875q0.59375 0.4375 1.21875 0.75q0.625 0.3125 1.359375 0.46875q0.734375 0.140625 1.59375 0.140625q1.578125 0 2.34375 -0.59375q0.765625 -0.59375 0.765625 -1.546875q0 -0.515625 -0.234375 -0.875q-0.234375 -0.375 -0.78125 -0.640625q-0.53125 -0.265625 -1.390625 -0.4375l-1.828125 -0.375q-1.65625 -0.359375 -2.484375 -1.15625q-0.8125 -0.796875 -0.8125 -2.140625q0 -1.109375 0.5625 -1.921875q0.578125 -0.828125 1.609375 -1.28125q1.03125 -0.46875 2.34375 -0.46875q0.84375 0 1.59375 0.1875q0.765625 0.171875 1.40625 0.515625q0.65625 0.328125 1.140625 0.828125l-0.515625 1.125q-0.78125 -0.71875 -1.671875 -1.046875q-0.875 -0.328125 -1.96875 -0.328125q-0.921875 0 -1.609375 0.28125q-0.671875 0.28125 -1.046875 0.828125q-0.375 0.53125 -0.375 1.234375q0 0.84375 0.515625 1.34375q0.515625 0.484375 1.6875 0.71875l1.84375 0.390625q1.765625 0.359375 2.609375 1.109375q0.859375 0.75 0.859375 2.03125q0 1.015625 -0.546875 1.828125q-0.546875 0.796875 -1.578125 1.234375q-1.03125 0.4375 -2.4375 0.4375zm6.804596 -0.15625l0 -12.40625l1.4375 0l0 11.140625l6.328125 0l0 1.265625l-7.765625 0zm9.254761 -6.75l0 -1.796875l1.796875 0l0 1.796875l-1.796875 0zm0 6.75l0 -1.796875l1.796875 0l0 1.796875l-1.796875 0zm9.6111145 0l0 -1.234375l2.828125 0l0 -9.921875l0.75 0l-2.984375 1.90625l-0.625 -1.078125l3.265625 -2.078125l1.03125 0l0 11.171875l2.65625 0l0 1.234375l-6.921875 0zm9.47821 0l0 -1.796875l1.796875 0l0 1.796875l-1.796875 0zm4.4801636 0l0 -1.09375l4.25 -4.578125q0.59375 -0.640625 0.953125 -1.203125q0.375 -0.578125 0.546875 -1.125q0.1875 -0.546875 0.1875 -1.109375q0 -1.0625 -0.640625 -1.609375q-0.640625 -0.5625 -1.875 -0.5625q-0.953125 0 -1.78125 0.34375q-0.8125 0.34375 -1.546875 1.0625l-0.546875 -1.125q0.6875 -0.703125 1.75 -1.125q1.0625 -0.4375 2.25 -0.4375q1.25 0 2.109375 0.390625q0.859375 0.390625 1.296875 1.140625q0.4375 0.734375 0.4375 1.8125q0 0.5625 -0.140625 1.109375q-0.125 0.53125 -0.40625 1.0625q-0.265625 0.53125 -0.671875 1.09375q-0.40625 0.5625 -1.0 1.171875l-3.71875 3.953125l0 -0.40625l6.453125 0l0 1.234375l-7.90625 0zm14.00946 0.4375l-1.0 -0.578125l7.296875 -12.703125l0.984375 0.578125l-7.28125 12.703125zm-1.0625 -5.40625q-0.921875 0 -1.609375 -0.4375q-0.671875 -0.453125 -1.03125 -1.296875q-0.34375 -0.859375 -0.34375 -2.0625q0 -1.796875 0.78125 -2.78125q0.796875 -1.0 2.203125 -1.0q0.9375 0 1.609375 0.453125q0.671875 0.453125 1.03125 1.296875q0.359375 0.84375 0.359375 2.03125q0 1.203125 -0.359375 2.046875q-0.359375 0.84375 -1.03125 1.296875q-0.671875 0.453125 -1.609375 0.453125zm0 -1.03125q0.8125 0 1.28125 -0.6875q0.484375 -0.703125 0.484375 -2.078125q0 -1.375 -0.484375 -2.046875q-0.46875 -0.6875 -1.28125 -0.6875q-0.8125 0 -1.28125 0.6875q-0.46875 0.671875 -0.46875 2.046875q0 1.375 0.46875 2.078125q0.46875 0.6875 1.28125 0.6875zm8.421875 6.15625q-0.921875 0 -1.609375 -0.4375q-0.671875 -0.453125 -1.03125 -1.3125q-0.359375 -0.859375 -0.359375 -2.046875q0 -1.796875 0.796875 -2.78125q0.8125 -1.0 2.203125 -1.0q0.921875 0 1.59375 0.453125q0.671875 0.4375 1.03125 1.28125q0.359375 0.84375 0.359375 2.046875q0 1.1875 -0.359375 2.046875q-0.34375 0.859375 -1.015625 1.3125q-0.65625 0.4375 -1.609375 0.4375zm0 -1.03125q0.828125 0 1.28125 -0.6875q0.46875 -0.703125 0.46875 -2.078125q0 -1.375 -0.46875 -2.0625q-0.453125 -0.6875 -1.28125 -0.6875q-0.8125 0 -1.28125 0.6875q-0.46875 0.6875 -0.46875 2.0625q0 1.390625 0.46875 2.078125q0.46875 0.6875 1.28125 0.6875z" fill-rule="nonzero"/><path fill="#3d0309" d="m646.5997 222.96338l0 48.325806l-4.545349 4.5453186l-438.0866 0l0 0l0 -48.325806l4.545334 -4.5453186l438.0866 0z" fill-rule="evenodd"/><path stroke="#e41939" stroke-width="1.3202099737532809" stroke-linejoin="round" stroke-linecap="butt" d="m646.5997 222.96338l0 48.325806l-4.545349 4.5453186l-438.0866 0l0 0l0 -48.325806l4.545334 -4.5453186l438.0866 0z" fill-rule="evenodd"/><path fill="#3d0309" d="m646.5997 286.14944l0 48.325806l-4.545349 4.5453186l-438.0866 0l0 0l0 -48.325806l4.545334 -4.5453186l438.0866 0z" fill-rule="evenodd"/><path stroke="#e41939" stroke-width="1.3202099737532809" stroke-linejoin="round" stroke-linecap="butt" d="m646.5997 286.14944l0 48.325806l-4.545349 4.5453186l-438.0866 0l0 0l0 -48.325806l4.545334 -4.5453186l438.0866 0z" fill-rule="evenodd"/><path fill="#3d0309" d="m646.5997 349.33615l0 48.325806l-4.545349 4.545349l-438.0866 0l0 0l0 -48.325806l4.545334 -4.545349l438.0866 0z" fill-rule="evenodd"/><path stroke="#e41939" stroke-width="1.3202099737532809" stroke-linejoin="round" stroke-linecap="butt" d="m646.5997 349.33615l0 48.325806l-4.545349 4.545349l-438.0866 0l0 0l0 -48.325806l4.545334 -4.545349l438.0866 0z" fill-rule="evenodd"/><path fill="#000000" fill-opacity="0.0" d="m222.12169 238.73663l412.55774 0l0 63.969086l-412.55774 0z" fill-rule="evenodd"/><path fill="#eabac0" d="m313.03488 255.9409l-5.515625 -12.40625l2.40625 0l4.484375 10.40625l-0.75 0l4.46875 -10.40625l2.3125 0l-5.515625 12.40625l-1.890625 0zm10.129303 0.17185974q-0.921875 0 -1.65625 -0.35935974q-0.734375 -0.359375 -1.15625 -0.96875q-0.40625 -0.625 -0.40625 -1.390625q0 -0.953125 0.484375 -1.5q0.5 -0.5625 1.609375 -0.8125q1.109375 -0.25 2.984375 -0.25l0.875 0l0 1.28125l-0.859375 0q-0.828125 0 -1.390625 0.0625q-0.5625 0.046875 -0.90625 0.1875q-0.34375 0.125 -0.5 0.359375q-0.140625 0.234375 -0.140625 0.5625q0 0.578125 0.40625 0.953125q0.40625 0.359375 1.125 0.359375q0.578125 0 1.015625 -0.265625q0.453125 -0.265625 0.71875 -0.734375q0.265625 -0.484375 0.265625 -1.109375l0 -2.015625q0 -0.875 -0.390625 -1.265625q-0.375 -0.390625 -1.296875 -0.390625q-0.71875 0 -1.484375 0.21875q-0.75 0.21875 -1.53125 0.671875l-0.625 -1.484375q0.453125 -0.328125 1.078125 -0.5625q0.625 -0.234375 1.3125 -0.359375q0.703125 -0.140625 1.328125 -0.140625q1.265625 0 2.078125 0.390625q0.8125 0.390625 1.21875 1.171875q0.40625 0.78125 0.40625 2.015625l0 5.203125l-2.0625 0l0 -1.828125l0.140625 0q-0.125 0.609375 -0.484375 1.0625q-0.359375 0.453125 -0.90625 0.703125q-0.53125 0.23435974 -1.25 0.23435974zm9.90509 0q-1.0625 0 -1.765625 -0.39060974q-0.703125 -0.390625 -1.046875 -1.1875q-0.34375 -0.796875 -0.34375 -1.96875l0 -5.234375l2.203125 0l0 5.265625q0 0.59375 0.15625 1.0q0.171875 0.40625 0.515625 0.609375q0.34375 0.1875 0.875 0.1875q0.59375 0 1.03125 -0.265625q0.453125 -0.28125 0.703125 -0.78125q0.265625 -0.5 0.265625 -1.171875l0 -4.84375l2.203125 0l0 8.609375l-2.15625 0l0 -1.796875l0.25 0q-0.359375 0.953125 -1.109375 1.46875q-0.75 0.49998474 -1.78125 0.49998474zm10.077454 0q-1.53125 0 -2.265625 -0.82810974q-0.734375 -0.84375 -0.734375 -2.453125l0 -9.296875l2.203125 0l0 9.1875q0 0.515625 0.140625 0.875q0.15625 0.359375 0.453125 0.53125q0.296875 0.171875 0.75 0.171875q0.1875 0 0.375 -0.015625q0.203125 -0.015625 0.375 -0.0625l-0.03125 1.734375q-0.328125 0.07810974 -0.640625 0.10935974q-0.296875 0.046875 -0.625 0.046875zm6.3211975 0q-1.71875 0 -2.5625 -0.85935974q-0.84375 -0.859375 -0.84375 -2.515625l0 -3.75l-1.65625 0l0 -1.65625l1.65625 0l0 -2.5625l2.203125 0l0 2.5625l2.59375 0l0 1.65625l-2.59375 0l0 3.625q0 0.84375 0.359375 1.265625q0.375 0.421875 1.203125 0.421875q0.25 0 0.5 -0.0625q0.265625 -0.0625 0.546875 -0.125l0.34375 1.609375q-0.3125 0.1875 -0.796875 0.28123474q-0.484375 0.109375 -0.953125 0.109375zm7.787628 -0.17185974l0 -12.40625l5.421875 0q1.9375 0 3.015625 0.859375q1.078125 0.84375 1.078125 2.359375q0 1.125 -0.65625 1.90625q-0.640625 0.765625 -1.78125 1.03125l0 -0.265625q0.875 0.125 1.484375 0.53125q0.609375 0.40625 0.9375 1.046875q0.328125 0.625 0.328125 1.46875q0 1.09375 -0.5 1.875q-0.5 0.78125 -1.453125 1.1875q-0.953125 0.40625 -2.265625 0.40625l-5.609375 0zm2.15625 -1.703125l3.171875 0q0.46875 0 0.84375 -0.0625q0.390625 -0.078125 0.65625 -0.21875q0.28125 -0.15625 0.453125 -0.390625q0.1875 -0.234375 0.28125 -0.53125q0.09375 -0.296875 0.09375 -0.671875q0 -0.375 -0.09375 -0.671875q-0.09375 -0.3125 -0.28125 -0.53125q-0.171875 -0.21875 -0.453125 -0.359375q-0.265625 -0.15625 -0.65625 -0.21875q-0.375 -0.078125 -0.84375 -0.078125l-3.171875 0l0 3.734375zm0 -5.4375l2.875 0q1.15625 0 1.71875 -0.453125q0.578125 -0.453125 0.578125 -1.328125q0 -0.875 -0.578125 -1.328125q-0.5625 -0.453125 -1.71875 -0.453125l-2.875 0l0 3.5625z" fill-rule="nonzero"/><path fill="#eabac0" d="m374.1474 259.11276l0 -15.57811l1.421875 0l0 15.57811l-1.421875 0zm9.0902405 -3.1718597l0 -12.40625l4.90625 0q1.984375 0 3.0625 0.9375q1.078125 0.9375 1.078125 2.65625q0 1.09375 -0.484375 1.890625q-0.484375 0.796875 -1.421875 1.21875q-0.9375 0.40625 -2.234375 0.40625l0.171875 -0.234375l0.359375 0q0.6875 0 1.1875 0.359375q0.515625 0.34375 0.9375 1.125l2.1875 4.046875l-1.59375 0l-2.140625 -3.96875q-0.265625 -0.5 -0.59375 -0.78125q-0.3125 -0.28125 -0.734375 -0.390625q-0.40625 -0.109375 -1.0 -0.109375l-2.25 0l0 5.25l-1.4375 0zm1.4375 -6.390625l3.265625 0q1.4375 0 2.171875 -0.59375q0.75 -0.609375 0.75 -1.828125q0 -1.1875 -0.75 -1.78125q-0.734375 -0.609375 -2.171875 -0.609375l-3.265625 0l0 4.8125zm12.797607 6.5468597q-0.875 0 -1.578125 -0.34373474q-0.6875 -0.34375 -1.09375 -0.9375q-0.40625 -0.59375 -0.40625 -1.34375q0 -0.9375 0.484375 -1.484375q0.484375 -0.546875 1.59375 -0.78125q1.125 -0.234375 3.0625 -0.234375l0.78125 0l0 0.9375l-0.765625 0q-1.078125 0 -1.796875 0.078125q-0.71875 0.0625 -1.140625 0.25q-0.421875 0.171875 -0.609375 0.453125q-0.171875 0.28125 -0.171875 0.703125q0 0.71875 0.5 1.171875q0.5 0.453125 1.359375 0.453125q0.71875 0 1.25 -0.328125q0.53125 -0.328125 0.84375 -0.90625q0.3125 -0.59375 0.3125 -1.34375l0 -2.0q0 -1.09375 -0.453125 -1.578125q-0.4375 -0.484375 -1.4375 -0.484375q-0.765625 0 -1.5 0.21875q-0.71875 0.21875 -1.46875 0.703125l-0.5 -1.03125q0.46875 -0.3125 1.046875 -0.546875q0.578125 -0.25 1.203125 -0.359375q0.640625 -0.125 1.21875 -0.125q1.109375 0 1.828125 0.359375q0.71875 0.359375 1.0625 1.09375q0.359375 0.71875 0.359375 1.859375l0 5.390625l-1.328125 0l0 -1.984375l0.15625 0q-0.140625 0.671875 -0.546875 1.140625q-0.390625 0.46875 -0.96875 0.734375q-0.578125 0.26560974 -1.296875 0.26560974zm10.059113 0q-1.515625 0 -2.28125 -0.79685974q-0.75 -0.8125 -0.75 -2.3125l0 -4.484375l-1.65625 0l0 -1.109375l1.65625 0l0 -2.625l1.4375 0l0 2.625l2.703125 0l0 1.109375l-2.703125 0l0 4.34375q0 1.0 0.421875 1.515625q0.421875 0.515625 1.375 0.515625q0.28125 0 0.5625 -0.0625q0.28125 -0.078125 0.5 -0.140625l0.25 1.09375q-0.234375 0.125 -0.671875 0.21875q-0.4375 0.10935974 -0.84375 0.10935974zm2.5484924 -10.82811l0 -1.609375l1.765625 0l0 1.609375l-1.765625 0zm0.1875 10.671875l0 -8.546875l1.421875 0l0 8.546875l-1.421875 0zm4.0817566 0l0 -8.546875l1.390625 0l0 1.890625l-0.203125 0q0.375 -1.015625 1.203125 -1.53125q0.84375 -0.515625 1.9375 -0.515625q1.015625 0 1.6875 0.359375q0.6875 0.359375 1.015625 1.125q0.328125 0.75 0.328125 1.890625l0 5.328125l-1.421875 0l0 -5.25q0 -0.78125 -0.203125 -1.296875q-0.203125 -0.515625 -0.640625 -0.75q-0.421875 -0.25 -1.109375 -0.25q-0.765625 0 -1.359375 0.34375q-0.578125 0.328125 -0.890625 0.921875q-0.3125 0.59375 -0.3125 1.40625l0 4.875l-1.421875 0zm13.774567 3.3281097q-1.109375 0 -2.09375 -0.296875q-0.96875 -0.28125 -1.734375 -0.875l0.484375 -1.03125q0.53125 0.375 1.046875 0.609375q0.515625 0.234375 1.0625 0.34375q0.5625 0.109375 1.15625 0.109375q1.25 0 1.890625 -0.671875q0.640625 -0.671875 0.640625 -1.9374847l0 -1.984375l0.1875 0q-0.265625 1.015625 -1.125 1.625q-0.859375 0.59375 -2.0 0.59375q-1.171875 0 -2.046875 -0.53125q-0.859375 -0.546875 -1.328125 -1.515625q-0.453125 -0.96875 -0.453125 -2.234375q0 -1.265625 0.453125 -2.21875q0.46875 -0.96875 1.328125 -1.484375q0.875 -0.53125 2.046875 -0.53125q1.171875 0 2.015625 0.59375q0.84375 0.578125 1.078125 1.578125l-0.15625 0l0 -2.015625l1.390625 0l0 7.9375q0 1.2968597 -0.4375 2.1718597q-0.421875 0.890625 -1.28125 1.328125q-0.859375 0.4375 -2.125 0.4375zm-0.21875 -4.6874847q1.234375 0 1.953125 -0.84375q0.71875 -0.84375 0.71875 -2.265625q0 -1.421875 -0.71875 -2.25q-0.71875 -0.84375 -1.953125 -0.84375q-1.21875 0 -1.9375 0.84375q-0.71875 0.828125 -0.71875 2.25q0 1.421875 0.71875 2.265625q0.71875 0.84375 1.9375 0.84375zm6.5131226 -5.390625l0 -1.796875l1.796875 0l0 1.796875l-1.796875 0zm0 6.75l0 -1.796875l1.796875 0l0 1.796875l-1.796875 0zm8.954895 0l0 -12.40625l4.953125 0q1.90625 0 2.953125 0.84375q1.0625 0.84375 1.0625 2.390625q0 1.171875 -0.671875 1.953125q-0.671875 0.765625 -1.84375 1.015625l0 -0.25q0.890625 0.109375 1.515625 0.5q0.640625 0.390625 0.96875 1.03125q0.328125 0.640625 0.328125 1.515625q0 1.09375 -0.484375 1.859375q-0.484375 0.765625 -1.40625 1.15625q-0.90625 0.390625 -2.203125 0.390625l-5.171875 0zm1.40625 -1.15625l3.625 0q0.5625 0 1.0 -0.09375q0.453125 -0.09375 0.78125 -0.265625q0.34375 -0.1875 0.578125 -0.453125q0.234375 -0.265625 0.34375 -0.625q0.109375 -0.375 0.109375 -0.84375q0 -0.46875 -0.109375 -0.828125q-0.109375 -0.359375 -0.34375 -0.625q-0.234375 -0.28125 -0.578125 -0.453125q-0.328125 -0.1875 -0.78125 -0.265625q-0.4375 -0.09375 -1.0 -0.09375l-3.625 0l0 4.546875zm0 -5.703125l3.34375 0q1.375 0 2.078125 -0.5625q0.71875 -0.5625 0.71875 -1.625q0 -1.09375 -0.71875 -1.640625q-0.703125 -0.5625 -2.078125 -0.5625l-3.34375 0l0 4.390625zm15.10257 10.031235l0 -15.57811l1.421875 0l0 15.57811l-1.421875 0zm9.0902405 -3.1718597l0 -12.40625l4.90625 0q1.34375 0 2.265625 0.4375q0.921875 0.421875 1.390625 1.265625q0.484375 0.828125 0.484375 2.03125q0 1.15625 -0.484375 2.0q-0.46875 0.84375 -1.390625 1.296875q-0.921875 0.4375 -2.265625 0.4375l-3.46875 0l0 4.9375l-1.4375 0zm1.4375 -6.15625l3.296875 0q1.421875 0 2.15625 -0.640625q0.734375 -0.640625 0.734375 -1.875q0 -1.25 -0.734375 -1.890625q-0.734375 -0.640625 -2.15625 -0.640625l-3.296875 0l0 5.046875zm13.715057 6.3124847q-0.96875 0 -1.828125 -0.17185974q-0.84375 -0.171875 -1.5625 -0.5q-0.71875 -0.328125 -1.296875 -0.796875l0.515625 -1.171875q0.59375 0.4375 1.21875 0.75q0.625 0.3125 1.359375 0.46875q0.734375 0.140625 1.59375 0.140625q1.578125 0 2.34375 -0.59375q0.765625 -0.59375 0.765625 -1.546875q0 -0.515625 -0.234375 -0.875q-0.234375 -0.375 -0.78125 -0.640625q-0.53125 -0.265625 -1.390625 -0.4375l-1.828125 -0.375q-1.65625 -0.359375 -2.484375 -1.15625q-0.8125 -0.796875 -0.8125 -2.140625q0 -1.109375 0.5625 -1.921875q0.578125 -0.828125 1.609375 -1.28125q1.03125 -0.46875 2.34375 -0.46875q0.84375 0 1.59375 0.1875q0.765625 0.171875 1.40625 0.515625q0.65625 0.328125 1.140625 0.828125l-0.515625 1.125q-0.78125 -0.71875 -1.671875 -1.046875q-0.875 -0.328125 -1.96875 -0.328125q-0.921875 0 -1.609375 0.28125q-0.671875 0.28125 -1.046875 0.828125q-0.375 0.53125 -0.375 1.234375q0 0.84375 0.515625 1.34375q0.515625 0.484375 1.6875 0.71875l1.84375 0.390625q1.765625 0.359375 2.609375 1.109375q0.859375 0.75 0.859375 2.03125q0 1.015625 -0.546875 1.828125q-0.546875 0.796875 -1.578125 1.234375q-1.03125 0.43748474 -2.4375 0.43748474zm6.804596 -0.15623474l0 -12.40625l1.4375 0l0 11.140625l6.328125 0l0 1.265625l-7.765625 0zm9.254761 -6.75l0 -1.796875l1.796875 0l0 1.796875l-1.796875 0zm0 6.75l0 -1.796875l1.796875 0l0 1.796875l-1.796875 0zm9.00177 0l0 -1.09375l4.2499695 -4.578125q0.59375 -0.640625 0.953125 -1.203125q0.375 -0.578125 0.546875 -1.125q0.1875 -0.546875 0.1875 -1.109375q0 -1.0625 -0.640625 -1.609375q-0.640625 -0.5625 -1.875 -0.5625q-0.9530945 0 -1.7812195 0.34375q-0.8125 0.34375 -1.546875 1.0625l-0.546875 -1.125q0.6875 -0.703125 1.75 -1.125q1.0625 -0.4375 2.2499695 -0.4375q1.25 0 2.109375 0.390625q0.859375 0.390625 1.296875 1.140625q0.4375 0.734375 0.4375 1.8125q0 0.5625 -0.140625 1.109375q-0.125 0.53125 -0.40625 1.0625q-0.265625 0.53125 -0.671875 1.09375q-0.40625 0.5625 -1.0 1.171875l-3.7187195 3.953125l0 -0.40625l6.4530945 0l0 1.234375l-7.9062195 0zm10.087555 0l0 -1.796875l1.796875 0l0 1.796875l-1.796875 0zm8.183289 0.15623474q-2.09375 0 -3.265625 -0.90623474q-1.15625 -0.90625 -1.15625 -2.546875q0 -0.859375 0.34375 -1.53125q0.359375 -0.671875 0.984375 -1.09375q0.640625 -0.421875 1.46875 -0.53125l0 0.265625q-0.75 -0.1875 -1.3125 -0.609375q-0.5625 -0.4375 -0.875 -1.0625q-0.3125 -0.640625 -0.3125 -1.390625q0 -1.5625 1.109375 -2.4375q1.125 -0.875 3.015625 -0.875q1.890625 0 3.0 0.875q1.125 0.875 1.125 2.4375q0 0.75 -0.3125 1.390625q-0.296875 0.640625 -0.859375 1.0625q-0.5625 0.421875 -1.3125 0.59375l0 -0.25q0.8125 0.109375 1.4375 0.546875q0.625 0.421875 0.96875 1.09375q0.359375 0.65625 0.359375 1.515625q0 1.640625 -1.15625 2.546875q-1.15625 0.90623474 -3.25 0.90623474zm0 -1.1874847q1.5 0 2.25 -0.578125q0.765625 -0.59375 0.765625 -1.765625q0 -1.171875 -0.765625 -1.734375q-0.75 -0.578125 -2.25 -0.578125q-1.484375 0 -2.265625 0.578125q-0.765625 0.5625 -0.765625 1.734375q0 1.171875 0.765625 1.765625q0.78125 0.578125 2.265625 0.578125zm0 -5.84375q1.296875 0 2.015625 -0.59375q0.71875 -0.609375 0.71875 -1.65625q0 -1.0625 -0.71875 -1.640625q-0.71875 -0.59375 -2.015625 -0.59375q-1.28125 0 -2.015625 0.59375q-0.71875 0.578125 -0.71875 1.640625q0 1.046875 0.71875 1.65625q0.734375 0.59375 2.015625 0.59375zm10.306335 7.3124847l-1.0 -0.57810974l7.296875 -12.703125l0.984375 0.578125l-7.28125 12.70311zm-1.0625 -5.4062347q-0.921875 0 -1.609375 -0.4375q-0.671875 -0.453125 -1.03125 -1.296875q-0.34375 -0.859375 -0.34375 -2.0625q0 -1.796875 0.78125 -2.78125q0.796875 -1.0 2.203125 -1.0q0.9375 0 1.609375 0.453125q0.671875 0.453125 1.03125 1.296875q0.359375 0.84375 0.359375 2.03125q0 1.203125 -0.359375 2.046875q-0.359375 0.84375 -1.03125 1.296875q-0.671875 0.453125 -1.609375 0.453125zm0 -1.03125q0.8125 0 1.28125 -0.6875q0.484375 -0.703125 0.484375 -2.078125q0 -1.375 -0.484375 -2.046875q-0.46875 -0.6875 -1.28125 -0.6875q-0.8125 0 -1.28125 0.6875q-0.46875 0.671875 -0.46875 2.046875q0 1.375 0.46875 2.078125q0.46875 0.6875 1.28125 0.6875zm8.421875 6.1562347q-0.921875 0 -1.609375 -0.43748474q-0.671875 -0.453125 -1.03125 -1.3125q-0.359375 -0.859375 -0.359375 -2.046875q0 -1.796875 0.796875 -2.78125q0.8125 -1.0 2.203125 -1.0q0.921875 0 1.59375 0.453125q0.671875 0.4375 1.03125 1.28125q0.359375 0.84375 0.359375 2.046875q0 1.1875 -0.359375 2.046875q-0.34375 0.859375 -1.015625 1.3125q-0.65625 0.43748474 -1.609375 0.43748474zm0 -1.0312347q0.828125 0 1.28125 -0.6875q0.46875 -0.703125 0.46875 -2.078125q0 -1.375 -0.46875 -2.0625q-0.453125 -0.6875 -1.28125 -0.6875q-0.8125 0 -1.28125 0.6875q-0.46875 0.6875 -0.46875 2.0625q0 1.390625 0.46875 2.078125q0.46875 0.6875 1.28125 0.6875z" fill-rule="nonzero"/><path fill="#000000" fill-opacity="0.0" d="m222.12169 301.92337l398.97748 0l0 63.969055l-398.97748 0z" fill-rule="evenodd"/><path fill="#eabac0" d="m284.84836 319.2995q-0.96875 0 -1.859375 -0.171875q-0.875 -0.15625 -1.625 -0.46875q-0.75 -0.328125 -1.328125 -0.765625l0.6875 -1.78125q0.578125 0.40625 1.21875 0.703125q0.640625 0.296875 1.375 0.453125q0.734375 0.140625 1.53125 0.140625q1.390625 0 2.015625 -0.46875q0.640625 -0.46875 0.640625 -1.203125q0 -0.40625 -0.1875 -0.6875q-0.1875 -0.296875 -0.640625 -0.5q-0.4375 -0.21875 -1.15625 -0.359375l-1.9375 -0.40625q-1.671875 -0.359375 -2.484375 -1.1875q-0.8125 -0.84375 -0.8125 -2.21875q0 -1.15625 0.609375 -2.015625q0.609375 -0.859375 1.703125 -1.328125q1.09375 -0.484375 2.515625 -0.484375q0.84375 0 1.625 0.171875q0.78125 0.15625 1.4375 0.484375q0.671875 0.328125 1.15625 0.78125l-0.671875 1.6875q-0.75 -0.609375 -1.625 -0.90625q-0.875 -0.3125 -1.9375 -0.3125q-0.8125 0 -1.390625 0.234375q-0.578125 0.21875 -0.890625 0.640625q-0.296875 0.40625 -0.296875 0.96875q0 0.625 0.421875 1.015625q0.421875 0.375 1.4375 0.578125l1.921875 0.40625q1.734375 0.375 2.578125 1.171875q0.859375 0.78125 0.859375 2.109375q0 1.09375 -0.59375 1.953125q-0.59375 0.84375 -1.703125 1.3125q-1.09375 0.453125 -2.59375 0.453125zm10.466858 0q-1.71875 0 -2.5625 -0.859375q-0.84375 -0.859375 -0.84375 -2.515625l0 -3.75l-1.65625 0l0 -1.65625l1.65625 0l0 -2.5625l2.203125 0l0 2.5625l2.59375 0l0 1.65625l-2.59375 0l0 3.625q0 0.84375 0.359375 1.265625q0.375 0.421875 1.203125 0.421875q0.25 0 0.5 -0.0625q0.265625 -0.0625 0.546875 -0.125l0.34375 1.609375q-0.3125 0.1875 -0.796875 0.28125q-0.484375 0.109375 -0.953125 0.109375zm5.6466675 0q-0.921875 0 -1.65625 -0.359375q-0.734375 -0.359375 -1.15625 -0.96875q-0.40625 -0.625 -0.40625 -1.390625q0 -0.953125 0.484375 -1.5q0.5 -0.5625 1.609375 -0.8125q1.109375 -0.25 2.984375 -0.25l0.875 0l0 1.28125l-0.859375 0q-0.828125 0 -1.390625 0.0625q-0.5625 0.046875 -0.90625 0.1875q-0.34375 0.125 -0.5 0.359375q-0.140625 0.234375 -0.140625 0.5625q0 0.578125 0.40625 0.953125q0.40625 0.359375 1.125 0.359375q0.578125 0 1.015625 -0.265625q0.453125 -0.265625 0.71875 -0.734375q0.265625 -0.484375 0.265625 -1.109375l0 -2.015625q0 -0.875 -0.390625 -1.265625q-0.375 -0.390625 -1.296875 -0.390625q-0.71875 0 -1.484375 0.21875q-0.75 0.21875 -1.53125 0.671875l-0.625 -1.484375q0.453125 -0.328125 1.078125 -0.5625q0.625 -0.234375 1.3125 -0.359375q0.703125 -0.140625 1.328125 -0.140625q1.265625 0 2.078125 0.390625q0.8125 0.390625 1.21875 1.171875q0.40625 0.78125 0.40625 2.015625l0 5.203125l-2.0625 0l0 -1.828125l0.140625 0q-0.125 0.609375 -0.484375 1.0625q-0.359375 0.453125 -0.90625 0.703125q-0.53125 0.234375 -1.25 0.234375zm11.764465 0q-1.09375 0 -1.921875 -0.546875q-0.8125 -0.546875 -1.078125 -1.453125l0.1875 0l0 1.828125l-2.15625 0l0 -12.40625l2.203125 0l0 5.546875l-0.21875 0q0.28125 -0.859375 1.09375 -1.390625q0.8125 -0.53125 1.890625 -0.53125q1.140625 0 1.984375 0.546875q0.84375 0.546875 1.3125 1.546875q0.484375 0.984375 0.484375 2.375q0 1.375 -0.484375 2.390625q-0.46875 1.0 -1.328125 1.546875q-0.84375 0.546875 -1.96875 0.546875zm-0.625 -1.671875q0.984375 0 1.578125 -0.703125q0.609375 -0.71875 0.609375 -2.109375q0 -1.40625 -0.609375 -2.09375q-0.59375 -0.703125 -1.578125 -0.703125q-0.984375 0 -1.578125 0.703125q-0.59375 0.6875 -0.59375 2.09375q0 1.390625 0.59375 2.109375q0.59375 0.703125 1.578125 0.703125zm9.212585 1.671875q-1.53125 0 -2.265625 -0.828125q-0.734375 -0.84375 -0.734375 -2.453125l0 -9.296875l2.203125 0l0 9.1875q0 0.515625 0.140625 0.875q0.15625 0.359375 0.453125 0.53125q0.296875 0.171875 0.75 0.171875q0.1875 0 0.375 -0.015625q0.203125 -0.015625 0.375 -0.0625l-0.03125 1.734375q-0.328125 0.078125 -0.640625 0.109375q-0.296875 0.046875 -0.625 0.046875zm6.7744446 0q-1.46875 0 -2.53125 -0.546875q-1.046875 -0.546875 -1.625 -1.546875q-0.5625 -1.0 -0.5625 -2.375q0 -1.328125 0.546875 -2.328125q0.5625 -1.015625 1.53125 -1.578125q0.984375 -0.578125 2.234375 -0.578125q1.21875 0 2.09375 0.53125q0.890625 0.53125 1.375 1.5q0.484375 0.96875 0.484375 2.296875l0 0.65625l-6.484375 0l0 -1.265625l4.9375 0l-0.28125 0.265625q0 -1.203125 -0.53125 -1.84375q-0.53125 -0.640625 -1.515625 -0.640625q-0.734375 0 -1.25 0.34375q-0.515625 0.34375 -0.796875 0.96875q-0.265625 0.625 -0.265625 1.484375l0 0.125q0 0.96875 0.296875 1.609375q0.296875 0.625 0.890625 0.9375q0.609375 0.3125 1.484375 0.3125q0.71875 0 1.4375 -0.21875q0.71875 -0.21875 1.328125 -0.6875l0.609375 1.46875q-0.609375 0.515625 -1.546875 0.8125q-0.9375 0.296875 -1.859375 0.296875zm9.270264 0q-1.359375 0 -2.359375 -0.546875q-1.0 -0.5625 -1.546875 -1.578125q-0.546875 -1.015625 -0.546875 -2.390625q0 -1.375 0.546875 -2.359375q0.546875 -1.0 1.546875 -1.53125q1.0 -0.546875 2.359375 -0.546875q0.828125 0 1.625 0.265625q0.8125 0.265625 1.34375 0.734375l-0.65625 1.53125q-0.453125 -0.40625 -1.03125 -0.609375q-0.5625 -0.21875 -1.09375 -0.21875q-1.140625 0 -1.765625 0.71875q-0.625 0.71875 -0.625 2.03125q0 1.296875 0.625 2.046875q0.625 0.75 1.765625 0.75q0.515625 0 1.09375 -0.203125q0.578125 -0.21875 1.03125 -0.640625l0.65625 1.546875q-0.53125 0.453125 -1.359375 0.734375q-0.8125 0.265625 -1.609375 0.265625zm8.065857 0q-1.328125 0 -2.3125 -0.546875q-0.984375 -0.546875 -1.53125 -1.546875q-0.546875 -1.015625 -0.546875 -2.390625q0 -1.375 0.546875 -2.375q0.546875 -1.0 1.53125 -1.546875q0.984375 -0.546875 2.3125 -0.546875q1.34375 0 2.328125 0.546875q0.984375 0.546875 1.53125 1.546875q0.546875 1.0 0.546875 2.375q0 1.375 -0.546875 2.390625q-0.546875 1.0 -1.53125 1.546875q-0.984375 0.546875 -2.328125 0.546875zm0 -1.671875q0.984375 0 1.578125 -0.703125q0.609375 -0.71875 0.609375 -2.125q0 -1.390625 -0.609375 -2.078125q-0.59375 -0.703125 -1.578125 -0.703125q-0.984375 0 -1.578125 0.703125q-0.59375 0.6875 -0.59375 2.078125q0 1.40625 0.59375 2.125q0.59375 0.703125 1.578125 0.703125zm6.0715637 -8.953125l0 -2.140625l2.46875 0l0 2.140625l-2.46875 0zm0.140625 10.453125l0 -8.609375l2.203125 0l0 8.609375l-2.203125 0zm4.4864197 0l0 -8.609375l2.15625 0l0 1.734375l-0.203125 0q0.390625 -0.9375 1.203125 -1.421875q0.828125 -0.484375 1.859375 -0.484375q1.046875 0 1.703125 0.390625q0.671875 0.390625 1.0 1.171875q0.34375 0.78125 0.34375 1.96875l0 5.25l-2.203125 0l0 -5.140625q0 -0.671875 -0.171875 -1.09375q-0.15625 -0.421875 -0.5 -0.625q-0.34375 -0.203125 -0.875 -0.203125q-0.625 0 -1.109375 0.28125q-0.46875 0.265625 -0.734375 0.78125q-0.265625 0.5 -0.265625 1.15625l0 4.84375l-2.203125 0zm21.02713 0.171875q-1.9375 0 -3.328125 -0.78125q-1.375 -0.78125 -2.109375 -2.203125q-0.734375 -1.4375 -0.734375 -3.390625q0 -1.953125 0.734375 -3.375q0.734375 -1.4375 2.109375 -2.21875q1.390625 -0.78125 3.328125 -0.78125q1.25 0 2.359375 0.390625q1.125 0.375 1.84375 1.109375l-0.734375 1.78125q-0.796875 -0.65625 -1.625 -0.96875q-0.828125 -0.3125 -1.765625 -0.3125q-1.890625 0 -2.875 1.140625q-0.984375 1.140625 -0.984375 3.234375q0 2.09375 0.984375 3.234375q0.984375 1.140625 2.875 1.140625q0.9375 0 1.765625 -0.3125q0.828125 -0.3125 1.625 -0.96875l0.734375 1.796875q-0.71875 0.703125 -1.84375 1.09375q-1.109375 0.390625 -2.359375 0.390625z" fill-rule="nonzero"/><path fill="#eabac0" d="m388.11807 322.2995l0 -15.578125l1.421875 0l0 15.578125l-1.421875 0zm9.0902405 -3.171875l0 -12.40625l4.90625 0q1.984375 0 3.0625 0.9375q1.078125 0.9375 1.078125 2.65625q0 1.09375 -0.484375 1.890625q-0.484375 0.796875 -1.421875 1.21875q-0.9375 0.40625 -2.234375 0.40625l0.171875 -0.234375l0.359375 0q0.6875 0 1.1875 0.359375q0.515625 0.34375 0.9375 1.125l2.1875 4.046875l-1.59375 0l-2.140625 -3.96875q-0.265625 -0.5 -0.59375 -0.78125q-0.3125 -0.28125 -0.734375 -0.390625q-0.40625 -0.109375 -1.0 -0.109375l-2.25 0l0 5.25l-1.4375 0zm1.4375 -6.390625l3.265625 0q1.4375 0 2.171875 -0.59375q0.75 -0.609375 0.75 -1.828125q0 -1.1875 -0.75 -1.78125q-0.734375 -0.609375 -2.171875 -0.609375l-3.265625 0l0 4.8125zm12.797607 6.546875q-0.875 0 -1.578125 -0.34375q-0.6875 -0.34375 -1.09375 -0.9375q-0.40625 -0.59375 -0.40625 -1.34375q0 -0.9375 0.484375 -1.484375q0.484375 -0.546875 1.59375 -0.78125q1.125 -0.234375 3.0625 -0.234375l0.78125 0l0 0.9375l-0.765625 0q-1.078125 0 -1.796875 0.078125q-0.71875 0.0625 -1.140625 0.25q-0.421875 0.171875 -0.609375 0.453125q-0.171875 0.28125 -0.171875 0.703125q0 0.71875 0.5 1.171875q0.5 0.453125 1.359375 0.453125q0.71875 0 1.25 -0.328125q0.53125 -0.328125 0.84375 -0.90625q0.3125 -0.59375 0.3125 -1.34375l0 -2.0q0 -1.09375 -0.453125 -1.578125q-0.4375 -0.484375 -1.4375 -0.484375q-0.765625 0 -1.5 0.21875q-0.71875 0.21875 -1.46875 0.703125l-0.5 -1.03125q0.46875 -0.3125 1.046875 -0.546875q0.578125 -0.25 1.203125 -0.359375q0.640625 -0.125 1.21875 -0.125q1.109375 0 1.828125 0.359375q0.71875 0.359375 1.0625 1.09375q0.359375 0.71875 0.359375 1.859375l0 5.390625l-1.328125 0l0 -1.984375l0.15625 0q-0.140625 0.671875 -0.546875 1.140625q-0.390625 0.46875 -0.96875 0.734375q-0.578125 0.265625 -1.296875 0.265625zm10.059143 0q-1.515625 0 -2.28125 -0.796875q-0.75 -0.8125 -0.75 -2.3125l0 -4.484375l-1.65625 0l0 -1.109375l1.65625 0l0 -2.625l1.4375 0l0 2.625l2.703125 0l0 1.109375l-2.703125 0l0 4.34375q0 1.0 0.421875 1.515625q0.421875 0.515625 1.375 0.515625q0.28125 0 0.5625 -0.0625q0.28125 -0.078125 0.5 -0.140625l0.25 1.09375q-0.234375 0.125 -0.671875 0.21875q-0.4375 0.109375 -0.84375 0.109375zm2.548462 -10.828125l0 -1.609375l1.765625 0l0 1.609375l-1.765625 0zm0.1875 10.671875l0 -8.546875l1.421875 0l0 8.546875l-1.421875 0zm4.081787 0l0 -8.546875l1.390625 0l0 1.890625l-0.203125 0q0.375 -1.015625 1.203125 -1.53125q0.84375 -0.515625 1.9375 -0.515625q1.015625 0 1.6875 0.359375q0.6875 0.359375 1.015625 1.125q0.328125 0.75 0.328125 1.890625l0 5.328125l-1.421875 0l0 -5.25q0 -0.78125 -0.203125 -1.296875q-0.203125 -0.515625 -0.640625 -0.75q-0.421875 -0.25 -1.109375 -0.25q-0.765625 0 -1.359375 0.34375q-0.578125 0.328125 -0.890625 0.921875q-0.3125 0.59375 -0.3125 1.40625l0 4.875l-1.421875 0zm13.774567 3.328125q-1.109375 0 -2.09375 -0.296875q-0.96875 -0.28125 -1.734375 -0.875l0.484375 -1.03125q0.53125 0.375 1.046875 0.609375q0.515625 0.234375 1.0625 0.34375q0.5625 0.109375 1.15625 0.109375q1.25 0 1.890625 -0.671875q0.640625 -0.671875 0.640625 -1.9375l0 -1.984375l0.1875 0q-0.265625 1.015625 -1.125 1.625q-0.859375 0.59375 -2.0 0.59375q-1.171875 0 -2.046875 -0.53125q-0.859375 -0.546875 -1.328125 -1.515625q-0.453125 -0.96875 -0.453125 -2.234375q0 -1.265625 0.453125 -2.21875q0.46875 -0.96875 1.328125 -1.484375q0.875 -0.53125 2.046875 -0.53125q1.171875 0 2.015625 0.59375q0.84375 0.578125 1.078125 1.578125l-0.15625 0l0 -2.015625l1.390625 0l0 7.9375q0 1.296875 -0.4375 2.171875q-0.421875 0.890625 -1.28125 1.328125q-0.859375 0.4375 -2.125 0.4375zm-0.21875 -4.6875q1.234375 0 1.953125 -0.84375q0.71875 -0.84375 0.71875 -2.265625q0 -1.421875 -0.71875 -2.25q-0.71875 -0.84375 -1.953125 -0.84375q-1.21875 0 -1.9375 0.84375q-0.71875 0.828125 -0.71875 2.25q0 1.421875 0.71875 2.265625q0.71875 0.84375 1.9375 0.84375zm6.5131226 -5.390625l0 -1.796875l1.796875 0l0 1.796875l-1.796875 0zm0 6.75l0 -1.796875l1.796875 0l0 1.796875l-1.796875 0zm7.75177 0l5.484375 -12.40625l1.21875 0l5.484375 12.40625l-1.5 0l-1.53125 -3.53125l0.703125 0.359375l-7.5625 0l0.71875 -0.359375l-1.515625 3.53125l-1.5 0zm6.078125 -10.71875l-2.828125 6.671875l-0.421875 -0.328125l6.5 0l-0.390625 0.328125l-2.828125 -6.671875l-0.03125 0zm12.566284 13.890625l0 -15.578125l1.421875 0l0 15.578125l-1.421875 0zm9.0902405 -3.171875l0 -12.40625l4.90625 0q1.34375 0 2.265625 0.4375q0.921875 0.421875 1.390625 1.265625q0.484375 0.828125 0.484375 2.03125q0 1.15625 -0.484375 2.0q-0.46875 0.84375 -1.390625 1.296875q-0.921875 0.4375 -2.265625 0.4375l-3.46875 0l0 4.9375l-1.4375 0zm1.4375 -6.15625l3.296875 0q1.421875 0 2.15625 -0.640625q0.734375 -0.640625 0.734375 -1.875q0 -1.25 -0.734375 -1.890625q-0.734375 -0.640625 -2.15625 -0.640625l-3.296875 0l0 5.046875zm13.715057 6.3125q-0.96875 0 -1.828125 -0.171875q-0.84375 -0.171875 -1.5625 -0.5q-0.71875 -0.328125 -1.296875 -0.796875l0.515625 -1.171875q0.59375 0.4375 1.21875 0.75q0.625 0.3125 1.359375 0.46875q0.734375 0.140625 1.59375 0.140625q1.578125 0 2.34375 -0.59375q0.765625 -0.59375 0.765625 -1.546875q0 -0.515625 -0.234375 -0.875q-0.234375 -0.375 -0.78125 -0.640625q-0.53125 -0.265625 -1.390625 -0.4375l-1.828125 -0.375q-1.65625 -0.359375 -2.484375 -1.15625q-0.8125 -0.796875 -0.8125 -2.140625q0 -1.109375 0.5625 -1.921875q0.578125 -0.828125 1.609375 -1.28125q1.03125 -0.46875 2.34375 -0.46875q0.84375 0 1.59375 0.1875q0.765625 0.171875 1.40625 0.515625q0.65625 0.328125 1.140625 0.828125l-0.515625 1.125q-0.78125 -0.71875 -1.671875 -1.046875q-0.875 -0.328125 -1.96875 -0.328125q-0.921875 0 -1.609375 0.28125q-0.671875 0.28125 -1.046875 0.828125q-0.375 0.53125 -0.375 1.234375q0 0.84375 0.515625 1.34375q0.515625 0.484375 1.6875 0.71875l1.84375 0.390625q1.765625 0.359375 2.609375 1.109375q0.859375 0.75 0.859375 2.03125q0 1.015625 -0.546875 1.828125q-0.546875 0.796875 -1.578125 1.234375q-1.03125 0.4375 -2.4375 0.4375zm6.804596 -0.15625l0 -12.40625l1.4375 0l0 11.140625l6.328125 0l0 1.265625l-7.765625 0zm9.254761 -6.75l0 -1.796875l1.796875 0l0 1.796875l-1.796875 0zm0 6.75l0 -1.796875l1.796875 0l0 1.796875l-1.796875 0zm12.704895 0.15625q-1.40625 0 -2.390625 -0.71875q-0.96875 -0.734375 -1.46875 -2.15625q-0.484375 -1.4375 -0.484375 -3.484375q0 -2.078125 0.484375 -3.5q0.5 -1.421875 1.46875 -2.140625q0.984375 -0.71875 2.390625 -0.71875q1.421875 0 2.390625 0.71875q0.96875 0.71875 1.453125 2.140625q0.5 1.40625 0.5 3.46875q0 2.078125 -0.5 3.515625q-0.484375 1.421875 -1.453125 2.15625q-0.96875 0.71875 -2.390625 0.71875zm0 -1.25q1.46875 0 2.1875 -1.25q0.71875 -1.25 0.71875 -3.890625q0 -2.640625 -0.703125 -3.859375q-0.703125 -1.21875 -2.203125 -1.21875q-1.46875 0 -2.1875 1.234375q-0.71875 1.234375 -0.71875 3.84375q0 2.640625 0.703125 3.890625q0.71875 1.25 2.203125 1.25zm6.3844604 1.09375l0 -1.796875l1.796875 0l0 1.796875l-1.796875 0zm4.4801025 0l0 -1.09375l4.25 -4.578125q0.59375 -0.640625 0.953125 -1.203125q0.375 -0.578125 0.546875 -1.125q0.1875 -0.546875 0.1875 -1.109375q0 -1.0625 -0.640625 -1.609375q-0.640625 -0.5625 -1.875 -0.5625q-0.953125 0 -1.78125 0.34375q-0.8125 0.34375 -1.546875 1.0625l-0.546875 -1.125q0.6875 -0.703125 1.75 -1.125q1.0625 -0.4375 2.25 -0.4375q1.25 0 2.109375 0.390625q0.859375 0.390625 1.296875 1.140625q0.4375 0.734375 0.4375 1.8125q0 0.5625 -0.140625 1.109375q-0.125 0.53125 -0.40625 1.0625q-0.265625 0.53125 -0.671875 1.09375q-0.40625 0.5625 -1.0 1.171875l-3.71875 3.953125l0 -0.40625l6.453125 0l0 1.234375l-7.90625 0zm14.00946 0.4375l-1.0 -0.578125l7.296875 -12.703125l0.984375 0.578125l-7.28125 12.703125zm-1.0625 -5.40625q-0.921875 0 -1.609375 -0.4375q-0.671875 -0.453125 -1.03125 -1.296875q-0.34375 -0.859375 -0.34375 -2.0625q0 -1.796875 0.78125 -2.78125q0.796875 -1.0 2.203125 -1.0q0.9375 0 1.609375 0.453125q0.671875 0.453125 1.03125 1.296875q0.359375 0.84375 0.359375 2.03125q0 1.203125 -0.359375 2.046875q-0.359375 0.84375 -1.03125 1.296875q-0.671875 0.453125 -1.609375 0.453125zm0 -1.03125q0.8125 0 1.28125 -0.6875q0.484375 -0.703125 0.484375 -2.078125q0 -1.375 -0.484375 -2.046875q-0.46875 -0.6875 -1.28125 -0.6875q-0.8125 0 -1.28125 0.6875q-0.46875 0.671875 -0.46875 2.046875q0 1.375 0.46875 2.078125q0.46875 0.6875 1.28125 0.6875zm8.421875 6.15625q-0.921875 0 -1.609375 -0.4375q-0.671875 -0.453125 -1.03125 -1.3125q-0.359375 -0.859375 -0.359375 -2.046875q0 -1.796875 0.796875 -2.78125q0.8125 -1.0 2.203125 -1.0q0.921875 0 1.59375 0.453125q0.671875 0.4375 1.03125 1.28125q0.359375 0.84375 0.359375 2.046875q0 1.1875 -0.359375 2.046875q-0.34375 0.859375 -1.015625 1.3125q-0.65625 0.4375 -1.609375 0.4375zm0 -1.03125q0.828125 0 1.28125 -0.6875q0.46875 -0.703125 0.46875 -2.078125q0 -1.375 -0.46875 -2.0625q-0.453125 -0.6875 -1.28125 -0.6875q-0.8125 0 -1.28125 0.6875q-0.46875 0.6875 -0.46875 2.0625q0 1.390625 0.46875 2.078125q0.46875 0.6875 1.28125 0.6875z" fill-rule="nonzero"/><path fill="#000000" fill-opacity="0.0" d="m222.12169 362.37714l398.97748 0l0 63.969086l-398.97748 0z" fill-rule="evenodd"/><path fill="#eabac0" d="m301.61624 379.5814l0 -12.40625l5.375 0q2.046875 0 3.15625 0.984375q1.109375 0.96875 1.109375 2.734375q0 1.140625 -0.5 1.96875q-0.5 0.828125 -1.453125 1.265625q-0.953125 0.4375 -2.3125 0.4375l0.15625 -0.265625l0.59375 0q0.71875 0 1.25 0.359375q0.53125 0.34375 0.9375 1.109375l2.078125 3.8125l-2.484375 0l-2.140625 -3.953125q-0.203125 -0.390625 -0.46875 -0.609375q-0.265625 -0.21875 -0.609375 -0.3125q-0.328125 -0.09375 -0.765625 -0.09375l-1.671875 0l0 4.96875l-2.25 0zm2.25 -6.640625l2.734375 0q1.21875 0 1.84375 -0.5q0.625 -0.5 0.625 -1.5q0 -0.984375 -0.625 -1.484375q-0.625 -0.5 -1.84375 -0.5l-2.734375 0l0 3.984375zm12.996887 6.640625l-4.375 -12.40625l2.3125 0l3.4375 10.171875l-0.703125 0l3.59375 -10.171875l1.671875 0l3.453125 10.171875l-0.609375 0l3.484375 -10.171875l2.203125 0l-4.421875 12.40625l-1.859375 0l-3.34375 -9.53125l0.40625 0l-3.375 9.53125l-1.875 0zm13.776215 0l5.609375 -12.40625l1.859375 0l5.609375 12.40625l-2.296875 0l-1.484375 -3.484375l0.9375 0.609375l-7.421875 0l0.953125 -0.609375l-1.46875 3.484375l-2.296875 0zm6.515625 -9.953125l-2.46875 5.859375l-0.453125 -0.5625l5.875 0l-0.4375 0.5625l-2.484375 -5.859375l-0.03125 0zm12.668304 9.953125l0 -12.40625l4.609375 0q2.078125 0 3.515625 0.71875q1.453125 0.71875 2.21875 2.109375q0.765625 1.375 0.765625 3.375q0 1.984375 -0.765625 3.375q-0.765625 1.390625 -2.21875 2.109375q-1.4375 0.71875 -3.515625 0.71875l-4.609375 0zm2.25 -1.859375l2.21875 0q2.15625 0 3.21875 -1.078125q1.0625 -1.09375 1.0625 -3.265625q0 -2.1875 -1.078125 -3.25q-1.0625 -1.078125 -3.203125 -1.078125l-2.21875 0l0 8.671875z" fill-rule="nonzero"/><path fill="#eabac0" d="m368.01703 382.75327l0 -15.578125l1.421875 0l0 15.578125l-1.421875 0zm9.0902405 -3.171875l0 -12.40625l4.90625 0q1.984375 0 3.0625 0.9375q1.078125 0.9375 1.078125 2.65625q0 1.09375 -0.484375 1.890625q-0.484375 0.796875 -1.421875 1.21875q-0.9375 0.40625 -2.234375 0.40625l0.171875 -0.234375l0.359375 0q0.6875 0 1.1875 0.359375q0.515625 0.34375 0.9375 1.125l2.1875 4.046875l-1.59375 0l-2.140625 -3.96875q-0.265625 -0.5 -0.59375 -0.78125q-0.3125 -0.28125 -0.734375 -0.390625q-0.40625 -0.109375 -1.0 -0.109375l-2.25 0l0 5.25l-1.4375 0zm1.4375 -6.390625l3.265625 0q1.4375 0 2.171875 -0.59375q0.75 -0.609375 0.75 -1.828125q0 -1.1875 -0.75 -1.78125q-0.734375 -0.609375 -2.171875 -0.609375l-3.265625 0l0 4.8125zm12.797607 6.546875q-0.875 0 -1.578125 -0.34375q-0.6875 -0.34375 -1.09375 -0.9375q-0.40625 -0.59375 -0.40625 -1.34375q0 -0.9375 0.484375 -1.484375q0.484375 -0.546875 1.59375 -0.78125q1.125 -0.234375 3.0625 -0.234375l0.78125 0l0 0.9375l-0.765625 0q-1.078125 0 -1.796875 0.078125q-0.71875 0.0625 -1.140625 0.25q-0.421875 0.171875 -0.609375 0.453125q-0.171875 0.28125 -0.171875 0.703125q0 0.71875 0.5 1.171875q0.5 0.453125 1.359375 0.453125q0.71875 0 1.25 -0.328125q0.53125 -0.328125 0.84375 -0.90625q0.3125 -0.59375 0.3125 -1.34375l0 -2.0q0 -1.09375 -0.453125 -1.578125q-0.4375 -0.484375 -1.4375 -0.484375q-0.765625 0 -1.5 0.21875q-0.71875 0.21875 -1.46875 0.703125l-0.5 -1.03125q0.46875 -0.3125 1.046875 -0.546875q0.578125 -0.25 1.203125 -0.359375q0.640625 -0.125 1.21875 -0.125q1.109375 0 1.828125 0.359375q0.71875 0.359375 1.0625 1.09375q0.359375 0.71875 0.359375 1.859375l0 5.390625l-1.328125 0l0 -1.984375l0.15625 0q-0.140625 0.671875 -0.546875 1.140625q-0.390625 0.46875 -0.96875 0.734375q-0.578125 0.265625 -1.296875 0.265625zm10.059143 0q-1.515625 0 -2.28125 -0.796875q-0.75 -0.8125 -0.75 -2.3125l0 -4.484375l-1.65625 0l0 -1.109375l1.65625 0l0 -2.625l1.4375 0l0 2.625l2.703125 0l0 1.109375l-2.703125 0l0 4.34375q0 1.0 0.421875 1.515625q0.421875 0.515625 1.375 0.515625q0.28125 0 0.5625 -0.0625q0.28125 -0.078125 0.5 -0.140625l0.25 1.09375q-0.234375 0.125 -0.671875 0.21875q-0.4375 0.109375 -0.84375 0.109375zm2.548462 -10.828125l0 -1.609375l1.765625 0l0 1.609375l-1.765625 0zm0.1875 10.671875l0 -8.546875l1.421875 0l0 8.546875l-1.421875 0zm4.081787 0l0 -8.546875l1.390625 0l0 1.890625l-0.203125 0q0.375 -1.015625 1.203125 -1.53125q0.84375 -0.515625 1.9375 -0.515625q1.015625 0 1.6875 0.359375q0.6875 0.359375 1.015625 1.125q0.328125 0.75 0.328125 1.890625l0 5.328125l-1.421875 0l0 -5.25q0 -0.78125 -0.203125 -1.296875q-0.203125 -0.515625 -0.640625 -0.75q-0.421875 -0.25 -1.109375 -0.25q-0.765625 0 -1.359375 0.34375q-0.578125 0.328125 -0.890625 0.921875q-0.3125 0.59375 -0.3125 1.40625l0 4.875l-1.421875 0zm13.774567 3.328125q-1.109375 0 -2.09375 -0.296875q-0.96875 -0.28125 -1.734375 -0.875l0.484375 -1.03125q0.53125 0.375 1.046875 0.609375q0.515625 0.234375 1.0625 0.34375q0.5625 0.109375 1.15625 0.109375q1.25 0 1.890625 -0.671875q0.640625 -0.671875 0.640625 -1.9375l0 -1.984375l0.1875 0q-0.265625 1.015625 -1.125 1.625q-0.859375 0.59375 -2.0 0.59375q-1.171875 0 -2.046875 -0.53125q-0.859375 -0.546875 -1.328125 -1.515625q-0.453125 -0.96875 -0.453125 -2.234375q0 -1.265625 0.453125 -2.21875q0.46875 -0.96875 1.328125 -1.484375q0.875 -0.53125 2.046875 -0.53125q1.171875 0 2.015625 0.59375q0.84375 0.578125 1.078125 1.578125l-0.15625 0l0 -2.015625l1.390625 0l0 7.9375q0 1.296875 -0.4375 2.171875q-0.421875 0.890625 -1.28125 1.328125q-0.859375 0.4375 -2.125 0.4375zm-0.21875 -4.6875q1.234375 0 1.953125 -0.84375q0.71875 -0.84375 0.71875 -2.265625q0 -1.421875 -0.71875 -2.25q-0.71875 -0.84375 -1.953125 -0.84375q-1.21875 0 -1.9375 0.84375q-0.71875 0.828125 -0.71875 2.25q0 1.421875 0.71875 2.265625q0.71875 0.84375 1.9375 0.84375zm6.5131226 -5.390625l0 -1.796875l1.796875 0l0 1.796875l-1.796875 0zm0 6.75l0 -1.796875l1.796875 0l0 1.796875l-1.796875 0zm8.954895 0l0 -12.40625l4.953125 0q1.90625 0 2.953125 0.84375q1.0625 0.84375 1.0625 2.390625q0 1.171875 -0.671875 1.953125q-0.671875 0.765625 -1.84375 1.015625l0 -0.25q0.890625 0.109375 1.515625 0.5q0.640625 0.390625 0.96875 1.03125q0.328125 0.640625 0.328125 1.515625q0 1.09375 -0.484375 1.859375q-0.484375 0.765625 -1.40625 1.15625q-0.90625 0.390625 -2.203125 0.390625l-5.171875 0zm1.40625 -1.15625l3.625 0q0.5625 0 1.0 -0.09375q0.453125 -0.09375 0.78125 -0.265625q0.34375 -0.1875 0.578125 -0.453125q0.234375 -0.265625 0.34375 -0.625q0.109375 -0.375 0.109375 -0.84375q0 -0.46875 -0.109375 -0.828125q-0.109375 -0.359375 -0.34375 -0.625q-0.234375 -0.28125 -0.578125 -0.453125q-0.328125 -0.1875 -0.78125 -0.265625q-0.4375 -0.09375 -1.0 -0.09375l-3.625 0l0 4.546875zm0 -5.703125l3.34375 0q1.375 0 2.078125 -0.5625q0.71875 -0.5625 0.71875 -1.625q0 -1.09375 -0.71875 -1.640625q-0.703125 -0.5625 -2.078125 -0.5625l-3.34375 0l0 4.390625zm15.10257 10.03125l0 -15.578125l1.421875 0l0 15.578125l-1.421875 0zm9.0902405 -3.171875l0 -12.40625l4.90625 0q1.34375 0 2.265625 0.4375q0.921875 0.421875 1.390625 1.265625q0.484375 0.828125 0.484375 2.03125q0 1.15625 -0.484375 2.0q-0.46875 0.84375 -1.390625 1.296875q-0.921875 0.4375 -2.265625 0.4375l-3.46875 0l0 4.9375l-1.4375 0zm1.4375 -6.15625l3.296875 0q1.421875 0 2.15625 -0.640625q0.734375 -0.640625 0.734375 -1.875q0 -1.25 -0.734375 -1.890625q-0.734375 -0.640625 -2.15625 -0.640625l-3.296875 0l0 5.046875zm13.715027 6.3125q-0.96875 0 -1.828125 -0.171875q-0.84375 -0.171875 -1.5625 -0.5q-0.71875 -0.328125 -1.296875 -0.796875l0.515625 -1.171875q0.59375 0.4375 1.21875 0.75q0.625 0.3125 1.359375 0.46875q0.734375 0.140625 1.59375 0.140625q1.578125 0 2.34375 -0.59375q0.765625 -0.59375 0.765625 -1.546875q0 -0.515625 -0.234375 -0.875q-0.234375 -0.375 -0.78125 -0.640625q-0.53125 -0.265625 -1.390625 -0.4375l-1.828125 -0.375q-1.65625 -0.359375 -2.484375 -1.15625q-0.8125 -0.796875 -0.8125 -2.140625q0 -1.109375 0.5625 -1.921875q0.578125 -0.828125 1.609375 -1.28125q1.03125 -0.46875 2.34375 -0.46875q0.84375 0 1.59375 0.1875q0.765625 0.171875 1.40625 0.515625q0.65625 0.328125 1.140625 0.828125l-0.515625 1.125q-0.78125 -0.71875 -1.671875 -1.046875q-0.875 -0.328125 -1.96875 -0.328125q-0.921875 0 -1.609375 0.28125q-0.671875 0.28125 -1.046875 0.828125q-0.375 0.53125 -0.375 1.234375q0 0.84375 0.515625 1.34375q0.515625 0.484375 1.6875 0.71875l1.84375 0.390625q1.765625 0.359375 2.609375 1.109375q0.859375 0.75 0.859375 2.03125q0 1.015625 -0.546875 1.828125q-0.546875 0.796875 -1.578125 1.234375q-1.03125 0.4375 -2.4375 0.4375zm6.8046265 -0.15625l0 -12.40625l1.4375 0l0 11.140625l6.328125 0l0 1.265625l-7.765625 0zm9.254761 -6.75l0 -1.796875l1.796875 0l0 1.796875l-1.796875 0zm0 6.75l0 -1.796875l1.796875 0l0 1.796875l-1.796875 0zm9.00177 0l0 -1.09375l4.25 -4.578125q0.59375 -0.640625 0.953125 -1.203125q0.375 -0.578125 0.546875 -1.125q0.1875 -0.546875 0.1875 -1.109375q0 -1.0625 -0.640625 -1.609375q-0.640625 -0.5625 -1.875 -0.5625q-0.953125 0 -1.78125 0.34375q-0.8125 0.34375 -1.546875 1.0625l-0.546875 -1.125q0.6875 -0.703125 1.75 -1.125q1.0625 -0.4375 2.25 -0.4375q1.25 0 2.109375 0.390625q0.859375 0.390625 1.296875 1.140625q0.4375 0.734375 0.4375 1.8125q0 0.5625 -0.140625 1.109375q-0.125 0.53125 -0.40625 1.0625q-0.265625 0.53125 -0.671875 1.09375q-0.40625 0.5625 -1.0 1.171875l-3.71875 3.953125l0 -0.40625l6.453125 0l0 1.234375l-7.90625 0zm10.087524 0l0 -1.796875l1.796875 0l0 1.796875l-1.796875 0zm8.448914 0.15625q-0.796875 0 -1.5625 -0.171875q-0.75 -0.171875 -1.40625 -0.5q-0.65625 -0.34375 -1.171875 -0.796875l0.546875 -1.15625q0.84375 0.6875 1.71875 1.015625q0.875 0.328125 1.859375 0.328125q1.296875 0 2.015625 -0.71875q0.734375 -0.71875 0.734375 -1.90625q0 -1.21875 -0.703125 -1.984375q-0.703125 -0.78125 -1.9375 -0.78125q-0.890625 0 -1.578125 0.375q-0.671875 0.359375 -1.21875 1.109375l-1.046875 0l0 -7.375l7.1875 0l0 1.234375l-5.765625 0l0 4.9375l-0.390625 0q0.46875 -0.734375 1.265625 -1.125q0.8125 -0.40625 1.8125 -0.40625q1.1875 0 2.03125 0.5q0.859375 0.484375 1.328125 1.375q0.46875 0.890625 0.46875 2.078125q0 1.15625 -0.515625 2.0625q-0.515625 0.890625 -1.453125 1.40625q-0.921875 0.5 -2.21875 0.5zm10.04071 0.28125l-1.0 -0.578125l7.296875 -12.703125l0.984375 0.578125l-7.28125 12.703125zm-1.0625 -5.40625q-0.921875 0 -1.609375 -0.4375q-0.671875 -0.453125 -1.03125 -1.296875q-0.34375 -0.859375 -0.34375 -2.0625q0 -1.796875 0.78125 -2.78125q0.796875 -1.0 2.203125 -1.0q0.9375 0 1.609375 0.453125q0.671875 0.453125 1.03125 1.296875q0.359375 0.84375 0.359375 2.03125q0 1.203125 -0.359375 2.046875q-0.359375 0.84375 -1.03125 1.296875q-0.671875 0.453125 -1.609375 0.453125zm0 -1.03125q0.8125 0 1.28125 -0.6875q0.484375 -0.703125 0.484375 -2.078125q0 -1.375 -0.484375 -2.046875q-0.46875 -0.6875 -1.28125 -0.6875q-0.8125 0 -1.28125 0.6875q-0.46875 0.671875 -0.46875 2.046875q0 1.375 0.46875 2.078125q0.46875 0.6875 1.28125 0.6875zm8.421875 6.15625q-0.921875 0 -1.609375 -0.4375q-0.671875 -0.453125 -1.03125 -1.3125q-0.359375 -0.859375 -0.359375 -2.046875q0 -1.796875 0.796875 -2.78125q0.8125 -1.0 2.203125 -1.0q0.921875 0 1.59375 0.453125q0.671875 0.4375 1.03125 1.28125q0.359375 0.84375 0.359375 2.046875q0 1.1875 -0.359375 2.046875q-0.34375 0.859375 -1.015625 1.3125q-0.65625 0.4375 -1.609375 0.4375zm0 -1.03125q0.828125 0 1.28125 -0.6875q0.46875 -0.703125 0.46875 -2.078125q0 -1.375 -0.46875 -2.0625q-0.453125 -0.6875 -1.28125 -0.6875q-0.8125 0 -1.28125 0.6875q-0.46875 0.6875 -0.46875 2.0625q0 1.390625 0.46875 2.078125q0.46875 0.6875 1.28125 0.6875z" fill-rule="nonzero"/><path fill="#3d0309" d="m781.45966 157.77147l0 229.36339l-10.573669 10.573608l-112.41846 0l0 0l0 -229.36336l10.573608 -10.573639l112.41852 0z" fill-rule="evenodd"/><path stroke="#e41939" stroke-width="1.3202099737532809" stroke-linejoin="round" stroke-linecap="butt" d="m781.45966 157.77147l0 229.36339l-10.573669 10.573608l-112.41846 0l0 0l0 -229.36336l10.573608 -10.573639l112.41852 0z" fill-rule="evenodd"/><path fill="#000000" fill-opacity="0.0" d="m650.47046 224.74745l138.99213 0l0 89.574814l-138.99213 0z" fill-rule="evenodd"/><path fill="#eabac0" d="m697.2555 253.79547q-1.828125 0 -3.125 -0.765625q-1.296875 -0.78125 -2.0 -2.203125q-0.6875 -1.421875 -0.6875 -3.390625q0 -1.984375 0.6875 -3.390625q0.703125 -1.421875 2.0 -2.1875q1.296875 -0.78125 3.125 -0.78125q1.296875 0 2.375 0.40625q1.09375 0.40625 1.84375 1.171875l-0.578125 1.1875q-0.796875 -0.765625 -1.671875 -1.109375q-0.875 -0.34375 -1.921875 -0.34375q-2.09375 0 -3.203125 1.328125q-1.109375 1.3125 -1.109375 3.71875q0 2.390625 1.109375 3.71875q1.109375 1.328125 3.203125 1.328125q1.046875 0 1.921875 -0.34375q0.875 -0.34375 1.671875 -1.109375l0.578125 1.1875q-0.75 0.75 -1.84375 1.171875q-1.078125 0.40625 -2.375 0.40625zm9.115906 0q-1.03125 0 -1.71875 -0.375q-0.671875 -0.375 -1.015625 -1.125q-0.34375 -0.765625 -0.34375 -1.890625l0 -5.3125l1.421875 0l0 5.296875q0 0.75 0.203125 1.25q0.203125 0.5 0.640625 0.75q0.453125 0.234375 1.09375 0.234375q0.75 0 1.28125 -0.328125q0.546875 -0.34375 0.859375 -0.9375q0.328125 -0.609375 0.328125 -1.40625l0 -4.859375l1.421875 0l0 8.546875l-1.390625 0l0 -1.96875l0.234375 0q-0.359375 1.03125 -1.15625 1.578125q-0.796875 0.546875 -1.859375 0.546875zm6.854492 -0.15625l0 -8.546875l1.390625 0l0 2.015625l-0.1875 0q0.296875 -1.03125 1.03125 -1.5625q0.75 -0.546875 1.96875 -0.625l0.5 -0.0625l0.109375 1.234375l-0.890625 0.109375q-1.203125 0.09375 -1.84375 0.765625q-0.640625 0.65625 -0.640625 1.796875l0 4.875l-1.4375 0zm8.898132 0.15625q-0.875 0 -1.578125 -0.34375q-0.6875 -0.34375 -1.09375 -0.9375q-0.40625 -0.59375 -0.40625 -1.34375q0 -0.9375 0.484375 -1.484375q0.484375 -0.546875 1.59375 -0.78125q1.125 -0.234375 3.0625 -0.234375l0.78125 0l0 0.9375l-0.765625 0q-1.078125 0 -1.796875 0.078125q-0.71875 0.0625 -1.140625 0.25q-0.421875 0.171875 -0.609375 0.453125q-0.171875 0.28125 -0.171875 0.703125q0 0.71875 0.5 1.171875q0.5 0.453125 1.359375 0.453125q0.71875 0 1.25 -0.328125q0.53125 -0.328125 0.84375 -0.90625q0.3125 -0.59375 0.3125 -1.34375l0 -2.0q0 -1.09375 -0.453125 -1.578125q-0.4375 -0.484375 -1.4375 -0.484375q-0.765625 0 -1.5 0.21875q-0.71875 0.21875 -1.46875 0.703125l-0.5 -1.03125q0.46875 -0.3125 1.046875 -0.546875q0.578125 -0.25 1.203125 -0.359375q0.640625 -0.125 1.21875 -0.125q1.109375 0 1.828125 0.359375q0.71875 0.359375 1.0625 1.09375q0.359375 0.71875 0.359375 1.859375l0 5.390625l-1.328125 0l0 -1.984375l0.15625 0q-0.140625 0.671875 -0.546875 1.140625q-0.390625 0.46875 -0.96875 0.734375q-0.578125 0.265625 -1.296875 0.265625zm10.059143 0q-1.515625 0 -2.28125 -0.796875q-0.75 -0.8125 -0.75 -2.3125l0 -4.484375l-1.65625 0l0 -1.109375l1.65625 0l0 -2.625l1.4375 0l0 2.625l2.703125 0l0 1.109375l-2.703125 0l0 4.34375q0 1.0 0.421875 1.515625q0.421875 0.515625 1.375 0.515625q0.28125 0 0.5625 -0.0625q0.28125 -0.078125 0.5 -0.140625l0.25 1.09375q-0.234375 0.125 -0.671875 0.21875q-0.4375 0.109375 -0.84375 0.109375zm6.1948853 0q-1.25 0 -2.171875 -0.546875q-0.90625 -0.546875 -1.40625 -1.53125q-0.5 -1.0 -0.5 -2.359375q0 -1.34375 0.5 -2.34375q0.5 -1.0 1.40625 -1.53125q0.921875 -0.546875 2.171875 -0.546875q1.25 0 2.15625 0.546875q0.921875 0.53125 1.421875 1.53125q0.5 1.0 0.5 2.34375q0 1.359375 -0.5 2.359375q-0.5 0.984375 -1.421875 1.53125q-0.90625 0.546875 -2.15625 0.546875zm0 -1.140625q1.21875 0 1.921875 -0.84375q0.71875 -0.859375 0.71875 -2.46875q0 -1.578125 -0.71875 -2.421875q-0.703125 -0.84375 -1.921875 -0.84375q-1.203125 0 -1.921875 0.84375q-0.71875 0.84375 -0.71875 2.421875q0 1.609375 0.71875 2.46875q0.71875 0.84375 1.921875 0.84375zm6.2352905 0.984375l0 -8.546875l1.390625 0l0 2.015625l-0.1875 0q0.296875 -1.03125 1.03125 -1.5625q0.75 -0.546875 1.96875 -0.625l0.5 -0.0625l0.109375 1.234375l-0.890625 0.109375q-1.203125 0.09375 -1.84375 0.765625q-0.640625 0.65625 -0.640625 1.796875l0 4.875l-1.4375 0z" fill-rule="nonzero"/><path fill="#eabac0" d="m680.33484 296.02487q-2.0 0 -3.359375 -0.75q-1.359375 -0.765625 -2.0625 -2.1875q-0.703125 -1.421875 -0.703125 -3.40625q0 -1.96875 0.703125 -3.390625q0.703125 -1.4375 2.015625 -2.203125q1.328125 -0.78125 3.1875 -0.78125q0.875 0 1.65625 0.1875q0.796875 0.171875 1.46875 0.515625q0.671875 0.328125 1.1875 0.84375l-0.5625 1.15625q-0.84375 -0.734375 -1.75 -1.0625q-0.890625 -0.34375 -2.015625 -0.34375q-2.125 0 -3.25 1.328125q-1.109375 1.3125 -1.109375 3.75q0 2.453125 1.140625 3.765625q1.15625 1.296875 3.484375 1.296875q0.84375 0 1.640625 -0.15625q0.8125 -0.171875 1.546875 -0.484375l-0.328125 0.828125l0 -4.375l-3.140625 0l0 -1.140625l4.390625 0l0 5.734375q-0.46875 0.25 -1.171875 0.453125q-0.703125 0.1875 -1.484375 0.296875q-0.765625 0.125 -1.484375 0.125zm10.460632 0q-1.25 0 -2.171875 -0.546875q-0.90625 -0.546875 -1.40625 -1.53125q-0.5 -1.0 -0.5 -2.359375q0 -1.34375 0.5 -2.34375q0.5 -1.0 1.40625 -1.53125q0.921875 -0.546875 2.171875 -0.546875q1.25 0 2.15625 0.546875q0.921875 0.53125 1.421875 1.53125q0.5 1.0 0.5 2.34375q0 1.359375 -0.5 2.359375q-0.5 0.984375 -1.421875 1.53125q-0.90625 0.546875 -2.15625 0.546875zm0 -1.140625q1.21875 0 1.921875 -0.84375q0.71875 -0.859375 0.71875 -2.46875q0 -1.578125 -0.71875 -2.421875q-0.703125 -0.84375 -1.921875 -0.84375q-1.203125 0 -1.921875 0.84375q-0.71875 0.84375 -0.71875 2.421875q0 1.609375 0.71875 2.46875q0.71875 0.84375 1.921875 0.84375zm8.627747 0.984375l-3.6875 -8.546875l1.546875 0l3.0625 7.484375l-0.46875 0l3.109375 -7.484375l1.46875 0l-3.703125 8.546875l-1.328125 0zm10.265808 0.15625q-1.359375 0 -2.34375 -0.53125q-0.96875 -0.546875 -1.5 -1.53125q-0.53125 -0.984375 -0.53125 -2.34375q0 -1.34375 0.515625 -2.328125q0.53125 -1.0 1.453125 -1.5625q0.9375 -0.5625 2.140625 -0.5625q1.171875 0 1.984375 0.515625q0.828125 0.5 1.28125 1.4375q0.453125 0.921875 0.453125 2.234375l0 0.546875l-6.734375 0l0 -0.9375l5.78125 0l-0.28125 0.21875q0 -1.40625 -0.625 -2.1875q-0.625 -0.78125 -1.8125 -0.78125q-0.90625 0 -1.53125 0.421875q-0.625 0.40625 -0.9375 1.140625q-0.3125 0.734375 -0.3125 1.6875l0 0.109375q0 1.078125 0.34375 1.828125q0.34375 0.734375 1.015625 1.109375q0.6875 0.375 1.640625 0.375q0.765625 0 1.46875 -0.234375q0.71875 -0.234375 1.34375 -0.78125l0.5 1.0q-0.578125 0.53125 -1.484375 0.84375q-0.890625 0.3125 -1.828125 0.3125zm5.5161743 -0.15625l0 -8.546875l1.390625 0l0 2.015625l-0.1875 0q0.296875 -1.03125 1.03125 -1.5625q0.75 -0.546875 1.96875 -0.625l0.5 -0.0625l0.109375 1.234375l-0.890625 0.109375q-1.203125 0.09375 -1.84375 0.765625q-0.640625 0.65625 -0.640625 1.796875l0 4.875l-1.4375 0zm6.298584 0l0 -8.546875l1.390625 0l0 1.890625l-0.203125 0q0.375 -1.015625 1.203125 -1.53125q0.84375 -0.515625 1.9375 -0.515625q1.015625 0 1.6875 0.359375q0.6875 0.359375 1.015625 1.125q0.328125 0.75 0.328125 1.890625l0 5.328125l-1.421875 0l0 -5.25q0 -0.78125 -0.203125 -1.296875q-0.203125 -0.515625 -0.640625 -0.75q-0.421875 -0.25 -1.109375 -0.25q-0.765625 0 -1.359375 0.34375q-0.578125 0.328125 -0.890625 0.921875q-0.3125 0.59375 -0.3125 1.40625l0 4.875l-1.421875 0zm12.680847 0.15625q-0.875 0 -1.578125 -0.34375q-0.6875 -0.34375 -1.09375 -0.9375q-0.40625 -0.59375 -0.40625 -1.34375q0 -0.9375 0.484375 -1.484375q0.484375 -0.546875 1.59375 -0.78125q1.125 -0.234375 3.0625 -0.234375l0.78125 0l0 0.9375l-0.765625 0q-1.078125 0 -1.796875 0.078125q-0.71875 0.0625 -1.140625 0.25q-0.421875 0.171875 -0.609375 0.453125q-0.171875 0.28125 -0.171875 0.703125q0 0.71875 0.5 1.171875q0.5 0.453125 1.359375 0.453125q0.71875 0 1.25 -0.328125q0.53125 -0.328125 0.84375 -0.90625q0.3125 -0.59375 0.3125 -1.34375l0 -2.0q0 -1.09375 -0.453125 -1.578125q-0.4375 -0.484375 -1.4375 -0.484375q-0.765625 0 -1.5 0.21875q-0.71875 0.21875 -1.46875 0.703125l-0.5 -1.03125q0.46875 -0.3125 1.046875 -0.546875q0.578125 -0.25 1.203125 -0.359375q0.640625 -0.125 1.21875 -0.125q1.109375 0 1.828125 0.359375q0.71875 0.359375 1.0625 1.09375q0.359375 0.71875 0.359375 1.859375l0 5.390625l-1.328125 0l0 -1.984375l0.15625 0q-0.140625 0.671875 -0.546875 1.140625q-0.390625 0.46875 -0.96875 0.734375q-0.578125 0.265625 -1.296875 0.265625zm6.637268 -0.15625l0 -8.546875l1.390625 0l0 1.890625l-0.203125 0q0.375 -1.015625 1.203125 -1.53125q0.84375 -0.515625 1.9375 -0.515625q1.015625 0 1.6875 0.359375q0.6875 0.359375 1.015625 1.125q0.328125 0.75 0.328125 1.890625l0 5.328125l-1.421875 0l0 -5.25q0 -0.78125 -0.203125 -1.296875q-0.203125 -0.515625 -0.640625 -0.75q-0.421875 -0.25 -1.109375 -0.25q-0.765625 0 -1.359375 0.34375q-0.578125 0.328125 -0.890625 0.921875q-0.3125 0.59375 -0.3125 1.40625l0 4.875l-1.421875 0zm13.618286 0.15625q-1.296875 0 -2.234375 -0.5625q-0.921875 -0.5625 -1.421875 -1.5625q-0.5 -1.015625 -0.5 -2.359375q0 -1.359375 0.5 -2.34375q0.5 -0.984375 1.421875 -1.5q0.9375 -0.53125 2.234375 -0.53125q0.78125 0 1.546875 0.28125q0.78125 0.28125 1.296875 0.78125l-0.5 1.046875q-0.5 -0.5 -1.109375 -0.71875q-0.609375 -0.234375 -1.15625 -0.234375q-1.328125 0 -2.0625 0.84375q-0.71875 0.828125 -0.71875 2.390625q0 1.53125 0.71875 2.421875q0.734375 0.890625 2.0625 0.890625q0.546875 0 1.15625 -0.21875q0.609375 -0.234375 1.109375 -0.75l0.5 1.03125q-0.515625 0.515625 -1.296875 0.8125q-0.78125 0.28125 -1.546875 0.28125zm8.188782 0q-1.359375 0 -2.34375 -0.53125q-0.96875 -0.546875 -1.5 -1.53125q-0.53125 -0.984375 -0.53125 -2.34375q0 -1.34375 0.515625 -2.328125q0.53125 -1.0 1.453125 -1.5625q0.9375 -0.5625 2.140625 -0.5625q1.171875 0 1.984375 0.515625q0.828125 0.5 1.28125 1.4375q0.453125 0.921875 0.453125 2.234375l0 0.546875l-6.734375 0l0 -0.9375l5.78125 0l-0.28125 0.21875q0 -1.40625 -0.625 -2.1875q-0.625 -0.78125 -1.8125 -0.78125q-0.90625 0 -1.53125 0.421875q-0.625 0.40625 -0.9375 1.140625q-0.3125 0.734375 -0.3125 1.6875l0 0.109375q0 1.078125 0.34375 1.828125q0.34375 0.734375 1.015625 1.109375q0.6875 0.375 1.640625 0.375q0.765625 0 1.46875 -0.234375q0.71875 -0.234375 1.34375 -0.78125l0.5 1.0q-0.578125 0.53125 -1.484375 0.84375q-0.890625 0.3125 -1.828125 0.3125z" fill-rule="nonzero"/></g></svg>