<svg width="387" height="68" viewBox="0 0 387 68" fill="none" xmlns="http://www.w3.org/2000/svg">
<path d="M131.88 50.8684L129.086 42.4865C128.073 40.1223 127.274 38.8021 125.647 38.188V37.7275C131.511 35.5783 134.858 30.7886 134.858 24.5559C134.858 15.6212 128.134 9.81836 117.726 9.81836H97.6152V60.018H105.905V41.2891H117.818C119.568 41.2891 119.936 41.5654 120.704 43.469L124.91 54.952C126.722 59.2811 127.889 59.9873 133.139 59.9873H135.963V52.2501H133.968C132.678 52.2501 132.402 52.0659 131.88 50.8684ZM105.936 17.4634H116.682C122.515 17.4634 126.261 20.6873 126.261 25.6919C126.261 30.3894 122.761 33.5826 117.542 33.5826H105.905V17.4941L105.936 17.4634Z" fill="#FBEBEB"/>
<path d="M154.931 23.9467C144.645 23.9467 137.737 31.3769 137.737 42.43C137.737 53.4831 144.799 60.9133 155.269 60.9133C163.436 60.9133 170.037 56.2157 171.726 49.2461L171.787 48.9391H164.388L164.326 49.0926C162.975 52.3471 159.69 54.3121 155.514 54.3121C149.773 54.3121 145.966 50.7505 145.198 44.7327H172.248V42.3993C172.248 31.3462 165.278 23.916 154.9 23.916L154.931 23.9467ZM154.931 30.6093C160.335 30.6093 163.896 33.9866 164.695 39.8509H145.229C146.027 33.9559 149.558 30.6093 154.931 30.6093Z" fill="#FBEBEB"/>
<path d="M201.542 29.7291H201.112C198.902 26.0447 195.002 23.9569 190.336 23.9569C186.406 23.9569 182.936 25.3692 180.265 28.0097C176.888 31.3563 175.076 36.4837 175.107 42.4402C175.107 53.3398 181.37 60.9234 190.336 60.9234C195.156 60.9234 199.055 58.8049 201.266 54.967H201.573V60.0023H209.372V9.80273H201.573V29.7291H201.542ZM192.239 53.7696C186.743 53.7696 183.059 49.2255 183.059 42.4709C183.059 35.7162 186.743 31.2335 192.239 31.2335C197.735 31.2335 201.481 35.7469 201.481 42.4709C201.481 49.1948 197.766 53.7696 192.239 53.7696Z" fill="#FBEBEB"/>
<path d="M239.453 31.0713L231.102 29.9353C226.374 29.3519 223.795 27.0492 223.795 23.3955C223.795 18.9743 227.755 15.996 233.65 15.996C239.545 15.996 243.782 19.1892 244.673 24.5008V24.7157H253.393V24.4394C251.888 14.7986 244.274 8.81152 233.497 8.81152C222.72 8.81152 215.29 14.9214 215.29 24.0096C215.29 31.5625 220.448 36.5671 229.475 37.7339L237.887 38.8699C242.984 39.5146 245.809 42.0016 245.809 45.8702C245.809 50.5371 241.48 53.8223 235.278 53.8223C228.462 53.8223 223.61 49.8923 222.567 43.5675V43.3525H213.97V43.6289C215.658 54.1293 224.071 60.9454 235.4 60.9454C246.73 60.9454 254.375 54.4978 254.375 45.2868C254.375 37.4268 249.063 32.3915 239.453 31.102V31.0713Z" fill="#FBEBEB"/>
<path d="M269.67 16.2539H261.933V24.9736H255.209V31.759H261.841V52.7292C261.841 57.7031 264.174 60.0059 269.21 60.0059H277.592V53.1591H271.052C270.1 53.1591 269.67 52.7292 269.67 51.7774V31.759H277.592V24.9736H269.67V16.2539Z" fill="#FBEBEB"/>
<path d="M296.561 23.9473C286.03 23.9473 278.968 31.3774 278.968 42.4305C278.968 53.4837 286.03 60.9138 296.561 60.9138C307.092 60.9138 314.092 53.4837 314.092 42.4305C314.092 31.3774 307.03 23.9473 296.561 23.9473ZM296.561 53.76C290.789 53.76 286.889 49.2159 286.889 42.4613C286.889 35.7066 290.758 31.2239 296.561 31.2239C302.364 31.2239 306.14 35.7373 306.14 42.4613C306.14 49.1852 302.271 53.76 296.561 53.76Z" fill="#FBEBEB"/>
<path d="M336.596 23.9473C332.052 23.9473 327.999 26.3421 325.788 30.3335H325.42V24.9605H318.021V59.9927H325.819V42.1235C325.819 35.7987 329.074 31.5616 333.925 31.5616C338.346 31.5616 341.201 34.8469 341.201 39.9129V60.0234H349V36.904C349 29.1668 343.995 23.978 336.565 23.978L336.596 23.9473Z" fill="#FBEBEB"/>
<path d="M386.862 42.4618C386.862 31.4087 379.893 23.9785 369.515 23.9785C359.137 23.9785 352.321 31.4087 352.321 42.4618C352.321 53.5149 359.383 60.9451 369.853 60.9451C378.02 60.9451 384.621 56.2475 386.31 49.2779L386.371 48.9709H378.972L378.91 49.1244C377.559 52.3789 374.274 54.3439 370.098 54.3439C364.388 54.3439 360.55 50.7823 359.782 44.7645H386.801V42.4311L386.862 42.4618ZM369.515 30.6104C374.919 30.6104 378.48 33.9877 379.279 39.852H359.813C360.611 33.957 364.142 30.6104 369.515 30.6104Z" fill="#FBEBEB"/>
<path d="M61.9282 0.122815L61.8668 0H20.6939L0 33.7734L20.6325 67.4241L20.6939 67.5469H61.8668L82.5607 33.7734L61.9282 0.122815ZM26.8652 14.9217L16.9481 31.133H7.52226L22.1369 7.27664L26.8652 14.9217ZM31.2251 54.8051H51.3049L56.0025 62.573H26.5275L31.2251 54.8051ZM51.3663 12.4041H31.1943L26.5889 4.97391H55.9411L51.3356 12.4041H51.3663ZM31.2251 49.8312L21.2772 33.5892L31.2251 17.3473H51.3356L61.2834 33.5892L51.3356 49.8312H31.2251ZM65.6126 31.133L55.6955 14.9217L60.4237 7.27664L75.0384 31.133H65.6126ZM26.8652 52.3181L22.0756 60.2088L7.30731 36.0762H16.9174L26.8652 52.2874V52.3181ZM75.2533 36.1069L60.4545 60.2395L55.6647 52.3488L65.6126 36.1069H75.2227H75.2533Z" fill="#FBEBEB"/>
</svg>
