<svg xmlns="http://www.w3.org/2000/svg" width="146" height="26" viewBox="0 0 146 26" fill="none">
<g clip-path="url(#clip0_329_823)">
<path d="M49.7714 19.475L48.72 16.2615C48.3433 15.3573 48.0343 14.8456 47.4217 14.6145V14.4347C49.636 13.6167 50.9032 11.7807 50.9032 9.38897C50.9032 5.96461 48.3652 3.75079 44.4376 3.75079H36.8457V22.9617H39.9724V15.7975H44.4632C45.1215 15.7975 45.2641 15.9075 45.5548 16.6357L47.1438 21.0303C47.8277 22.6902 48.2628 22.9617 50.2486 22.9617H51.3128V20.005H50.5558C50.0694 20.005 49.9652 19.9353 49.7714 19.4731V19.475ZM39.9743 6.6836H44.0299C46.2296 6.6836 47.6503 7.91798 47.6503 9.82733C47.6503 11.6303 46.3283 12.8427 44.3627 12.8427H39.9743V6.6836Z" fill="#AE0822"/>
<path d="M58.4658 9.17072C54.5839 9.17072 51.9746 12.0136 51.9746 16.2469C51.9746 20.4801 54.6351 23.323 58.5938 23.323C61.6748 23.323 64.1689 21.5292 64.8015 18.8624L64.8289 18.7486H62.0405L62.0167 18.8055C61.5084 20.0564 60.2668 20.8029 58.6962 20.8029C56.5349 20.8029 55.0867 19.4346 54.8051 17.1346H65.0081V16.2469C65.0081 12.0136 62.3788 9.17072 58.4658 9.17072ZM58.4658 11.7165C60.5064 11.7165 61.8448 13.0041 62.1502 15.2564H54.8069C55.1123 13.0059 56.4416 11.7165 58.4658 11.7165Z" fill="#AE0822"/>
<path d="M76.0639 11.379H75.9012C75.071 9.97406 73.5918 9.1707 71.8291 9.1707C70.3517 9.1707 69.0388 9.70811 68.0295 10.7261C66.7587 12.01 66.0657 13.9707 66.0803 16.2468C66.0803 20.414 68.4445 23.323 71.8291 23.323C73.6539 23.323 75.1149 22.5123 75.9524 21.0376H76.0639V22.9635H79.0114V3.75262H76.0639V11.379ZM72.5459 20.5718C70.4724 20.5718 69.079 18.833 69.079 16.2468C69.079 13.6607 70.4724 11.9476 72.5459 11.9476C74.6194 11.9476 76.0383 13.6754 76.0383 16.2468C76.0383 18.8183 74.634 20.5718 72.5459 20.5718Z" fill="#AE0822"/>
<path d="M90.3679 11.8926L87.2174 11.456C85.4364 11.2359 84.4564 10.3464 84.4564 8.95425C84.4564 7.25766 85.9521 6.11866 88.1792 6.11866C90.4063 6.11866 92.0026 7.33836 92.339 9.37977L92.3518 9.45681H95.634L95.6175 9.35226C95.0653 5.66195 92.1964 3.36743 88.1298 3.36743C84.0632 3.36743 81.2547 5.70597 81.2547 9.18535C81.2547 12.0741 83.2057 13.9872 86.6067 14.4384L89.7809 14.8749C91.71 15.1262 92.7724 16.0781 92.7724 17.5564C92.7724 19.3465 91.1359 20.5974 88.7936 20.5974C86.2263 20.5974 84.3887 19.0916 83.9938 16.6687L83.981 16.5916H80.75L80.7665 16.698C81.3881 20.7222 84.5588 23.323 88.8429 23.323C93.1271 23.323 95.9997 20.856 95.9997 17.3253C95.9997 14.321 93.9993 12.3914 90.3661 11.8926H90.3679Z" fill="#AE0822"/>
<path d="M101.769 6.21771H98.8468V9.55586H96.3125V12.153H98.8212V20.1756C98.8212 22.0776 99.7044 22.9635 101.601 22.9635H104.764V20.3407H102.292C101.935 20.3407 101.769 20.1738 101.769 19.8161V12.153H104.764V9.55586H101.769V6.21771Z" fill="#AE0822"/>
<path d="M111.928 9.17072C107.953 9.17072 105.283 12.0136 105.283 16.2469C105.283 20.4801 107.953 23.323 111.928 23.323C115.903 23.323 118.547 20.4801 118.547 16.2469C118.547 12.0136 115.887 9.17072 111.928 9.17072ZM111.928 20.5718C109.747 20.5718 108.282 18.833 108.282 16.2469C108.282 13.6607 109.747 11.9476 111.928 11.9476C114.109 11.9476 115.548 13.6754 115.548 16.2469C115.548 18.8183 114.093 20.5718 111.928 20.5718Z" fill="#AE0822"/>
<path d="M127.03 9.17072C125.312 9.17072 123.792 10.0823 122.957 11.6101H122.821V9.55589H120.027V22.9635H122.975V16.1185C122.975 13.7011 124.204 12.076 126.032 12.076C127.703 12.076 128.782 13.3306 128.782 15.2711V22.9635H131.73V14.1156C131.73 11.1571 129.841 9.17072 127.03 9.17072Z" fill="#AE0822"/>
<path d="M145.999 16.2469C145.999 12.0136 143.37 9.17072 139.457 9.17072C135.544 9.17072 132.966 12.0136 132.966 16.2469C132.966 20.4801 135.626 23.323 139.585 23.323C142.666 23.323 145.16 21.5292 145.793 18.8624L145.82 18.7486H143.032L143.008 18.8055C142.5 20.0564 141.258 20.8029 139.687 20.8029C137.526 20.8029 136.078 19.4346 135.796 17.1346H145.999V16.2469ZM139.459 11.7165C141.499 11.7165 142.838 13.0041 143.143 15.2564H135.8C136.105 13.0059 137.435 11.7165 139.459 11.7165Z" fill="#AE0822"/>
<path d="M24.107 0.0440196L24.0795 0H8.54096L0.731445 12.9271L8.51353 25.8101L8.54096 25.8542H24.0795L31.889 12.9271L24.107 0.0440196ZM10.8686 5.70971L7.12021 11.9146H3.56196L9.08036 2.78057L10.8668 5.70971H10.8686ZM12.5143 20.9827H20.0952L21.8689 23.9503H10.7406L12.5143 20.9827ZM20.1153 4.75045H12.507L10.7699 1.90385H21.8506L20.1135 4.75045H20.1153ZM12.5161 19.0788L8.76403 12.8666L12.5161 6.65429H20.1025L23.8546 12.8666L20.1025 19.0788H12.5161ZM25.5003 11.9146L21.7537 5.71154L23.5401 2.7824L29.0567 11.9146H25.5003ZM10.8723 20.0307L9.06756 23.0516L3.49065 13.8203H7.12021L10.8723 20.0307ZM29.1317 13.8185L23.5493 23.0589L21.7445 20.0381L25.5021 13.8185H29.1317Z" fill="#AE0822"/>
</g>
<defs>
<clipPath id="clip0_329_823">
<rect width="146" height="25.8542" fill="white"/>
</clipPath>
</defs>
<script xmlns=""/></svg>